<svg xmlns="http://www.w3.org/2000/svg" width="418.492" height="289.686" viewBox="0 0 418.492 289.686">
  <g id="AC_SERVICE" data-name="AC SERVICE" transform="translate(209.246 144.842)">
    <g id="Group_1111" data-name="Group 1111" transform="translate(-209.246 -144.843)">
      <g id="Group_1103" data-name="Group 1103" transform="translate(0 0)">
        <g id="Group_1106" data-name="Group 1106">
          <path id="Path_1044" data-name="Path 1044" d="M168.084,128.1l11.691-6.025c-.842-.752-28.9-22.435-47.848-58.387,0,0-.68-1.931-8.7,1.123-8.214,3.129-7.975,6.24-7.975,6.24,14.3,37.255,52.347,56.618,52.83,57.049" fill="#f4a26f"></path>
        </g>
        <g id="Group_1107" data-name="Group 1107">
          <path id="Path_1004" data-name="Path 1004" d="M80.5,271.548s.142,5.655,3.968,7.25,14.913,3.035,10.77,6.67c-2.377,2.086-13.58.738-16.742.738s-6.133,1.379-8.483-.738c-2.586-2.329,0-13.92,0-13.92a12.641,12.641,0,0,0,5.184,1.358,10.072,10.072,0,0,0,5.3-1.358" fill="#331832"></path>
          <path id="Path_1005" data-name="Path 1005" d="M14.558,271.715s-1.593,5.428,1.563,8.116,13.273,7.446,8.217,9.642c-2.9,1.26-13.156-3.447-16.167-4.413S1.91,284.5.32,281.76c-1.751-3.007,4.253-13.254,4.253-13.254a12.645,12.645,0,0,0,4.521,2.877,10.079,10.079,0,0,0,5.464.327" fill="#331832"></path>
          <path id="Path_1007" data-name="Path 1007" d="M108.884,133.083c-.981,10.818-3.961,35.473-6.8,52.523-5.454,32.782-11.894,65.815-15.049,81.651A12.354,12.354,0,0,1,75.491,277.29l-3.034.121A10.37,10.37,0,0,1,61.81,267.326a10.223,10.223,0,0,1,.032-1.148l7.1-99.3.562-7.836,1.362-25.458c4.694,1.5-10.308-5.492-7.106-2.285l-6.882-6.045s40.821-4.736,52,7.832" fill="#436e8e"></path>
          <path id="Path_1008" data-name="Path 1008" d="M83.491,133.712l-14.54,33.163L25.126,266.83A13.726,13.726,0,0,1,11.313,275.1l-2.55-.242A9.72,9.72,0,0,1,.547,262.3S35.488,125.53,37.1,120.646c0,0,19.123,3.265,32.5,7.553,4.694,1.5,10.684,2.307,13.887,5.513" fill="#436e8e"></path>
          <path id="Path_1009" data-name="Path 1009" d="M63.32,42.2s9.975-14.614,32.312-9.615c24.6,5.5,26.264,18.849,23.341,44.484-1.852,16.239-7.4,46.607-11.531,69.593,0,0-21.641-26.255-62.9-50.6,0,0,9.421-40.32,18.776-53.867" fill="#ef8062"></path>
          <path id="Path_1010" data-name="Path 1010" d="M42.727,99.616s6.67-1.281,17.988-6.581c13.4-6.273,38.445-17.388,49.4-16.554s24.624-13.8,24.624-13.8S123.5,43.335,105.2,35.587q-2.579-1.1-5.419-1.994A81.324,81.324,0,0,0,90.1,31.434C43.114,22.793,42.731,99.612,42.731,99.612" fill="#e28569"></path>
          <path id="Path_1011" data-name="Path 1011" d="M95.142,35.588c-.532-2.354.178-2.73,1.448-4.441l3.931-5.294,1.144-1.541,6.728-9.062-3.144,10.262-1.888,6.16-.6,1.95c-.406,1.324-.115,1.633.454,3.108.23.6-.065,2.33-2.256,2.821a5.18,5.18,0,0,1-5.82-3.963" fill="#ffb27d"></path>
          <path id="Path_1012" data-name="Path 1012" d="M99.047,23.06s-9.467-7.814-4.854-15.3,7.2,10.983,7.2,10.983l-1.126,4.392Z" fill="#331832"></path>
          <path id="Path_1013" data-name="Path 1013" d="M100.549,25.677c-.011.058-.021.116-.028.175-.511,3.423,2.813,5.832,2.813,5.832l.027-.014,1.888-6.159c-1.034-.659-2.543-1.438-3.584-1.2a1.5,1.5,0,0,0-1.116,1.366" fill="#331832"></path>
          <path id="Path_1014" data-name="Path 1014" d="M119.092,20.382c1.533-6.739-1.754-13.233-7.343-14.5s-11.363,3.16-12.9,9.9,1.754,13.233,7.343,14.5,11.363-3.16,12.9-9.9" fill="#ffb27d"></path>
          <path id="Path_1015" data-name="Path 1015" d="M100.658,14.69s2.968,1.835,5.214-.052,3.8-3.635,9.292-1.368,11.207.67,12.068-2.381-1.825-5.151-5.145-4.768.587-1.71-1.95-4.674-8.185.674-11.207-.67S95.439-1.179,94.195,7.756Z" fill="#331832"></path>
          <path id="Path_1016" data-name="Path 1016" d="M98.567,16.611a2.031,2.031,0,1,0,.24-3.019,2.148,2.148,0,0,0-.24,3.019" fill="#ffb27d"></path>
          <path id="Path_1017" data-name="Path 1017" d="M121.085,10.161c-2.162,0-5.152-2.305-5.295-2.414l.089-.114c.032.025,3.089,2.388,5.213,2.388a2.069,2.069,0,0,0,.694-.108c1-.325,1.258-.821,1.169-1.178-.108-.439-.742-.809-1.6-.649a4.517,4.517,0,0,1-2.653-.223l.067-.128a4.321,4.321,0,0,0,2.56.21c.939-.166,1.637.255,1.761.752.1.42-.172,1-1.261,1.356a2.409,2.409,0,0,1-.745.108" fill="#fff"></path>
          <path id="Path_1018" data-name="Path 1018" d="M111.093,3.443a5.845,5.845,0,0,1-1.678-.236,24.445,24.445,0,0,1-2.56-1.006A9,9,0,0,0,103.4,1.182a3.344,3.344,0,0,0-.933.121l-.038-.14c1.487-.395,2.879.21,4.483.911a22.81,22.81,0,0,0,2.55.994c2.846.892,6.011-.942,6.126-1.089l.115.089a8.853,8.853,0,0,1-4.608,1.376" fill="#fff"></path>
          <path id="Path_1019" data-name="Path 1019" d="M96.812,6.99a.388.388,0,0,1-.083-.013c-.115-.032-.236-.153-.166-.516l.01-.026C96.618,6.359,97.69,4.614,98.429,5c.092.051.226.179.1.5-.239.58-1.242,1.5-1.713,1.5m-.111-.49c-.025.14-.035.312.07.344.016,0,.032.007.051.007A2.99,2.99,0,0,0,98.4,5.443c.1-.242,0-.3-.029-.312a.367.367,0,0,0-.169-.038c-.513,0-1.229.981-1.5,1.414" fill="#fff"></path>
          <path id="Path_1020" data-name="Path 1020" d="M110.982,18.264a.211.211,0,0,0,.171-.244.214.214,0,0,0-.125-.156,2.277,2.277,0,0,0-2.753.453.212.212,0,0,0-.009.3h0a.231.231,0,0,0,.3.01,3.6,3.6,0,0,1,2.287-.379.214.214,0,0,0,.132.015" fill="#080435"></path>
          <path id="Path_1021" data-name="Path 1021" d="M109.192,20.478c-.044.5.214.932.577.963s.693-.347.737-.848-.214-.931-.577-.963-.693.348-.737.848" fill="#080435"></path>
          <path id="Path_1022" data-name="Path 1022" d="M117.877,20.336a.154.154,0,0,0,.143-.059.253.253,0,0,0,.022-.3,1.474,1.474,0,0,0-2.007-.572c-.032.017-.063.036-.093.056a.251.251,0,0,0-.106.274.157.157,0,0,0,.188.116l.019-.006a2.2,2.2,0,0,1,1.742.426.144.144,0,0,0,.089.059" fill="#080435"></path>
          <path id="Path_1023" data-name="Path 1023" d="M115.33,21.69a.693.693,0,1,0,1.167.611.693.693,0,1,0-1.167-.611" fill="#080435"></path>
          <path id="Path_1024" data-name="Path 1024" d="M109.868,27.432a4.618,4.618,0,0,1-4.009-2.057.147.147,0,0,1,.038-.2.144.144,0,0,1,.2.038c1.895,2.827,5.356,1.725,5.388,1.707a.15.15,0,0,1,.188.1.146.146,0,0,1-.092.185h0a6.185,6.185,0,0,1-1.716.236" fill="#020202"></path>
          <path id="Path_1025" data-name="Path 1025" d="M105.582,25.909a.1.1,0,0,1-.038-.007.149.149,0,0,1-.1-.178,1.994,1.994,0,0,1,.911-1.07.149.149,0,0,1,.21.028l0,0a.14.14,0,0,1-.021.2l0,0-.025.013a1.757,1.757,0,0,0-.786.9.153.153,0,0,1-.143.108" fill="#020202"></path>
          <path id="Path_1026" data-name="Path 1026" d="M94.112,7.83a2.676,2.676,0,0,1-.248-3.248l.191.128a2.415,2.415,0,0,0,.223,2.967Z" fill="#331832"></path>
          <path id="Path_1027" data-name="Path 1027" d="M92.126,9.715l-.14-.178a4.568,4.568,0,0,1,2.261-.911,1.348,1.348,0,0,1,.229.013l-.032.229a.957.957,0,0,0-.2-.013,4.5,4.5,0,0,0-2.117.86" fill="#331832"></path>
          <path id="Path_1028" data-name="Path 1028" d="M57.152,64.754c2.085,2.661,8.7,1.051,14.776-3.594s9.31-10.568,7.226-13.228-8.7-1.051-14.776,3.594-9.311,10.568-7.226,13.228" fill="#331832"></path>
          <path id="Path_1029" data-name="Path 1029" d="M106.807,151.972S120.95,87.032,121,80.134s2.6-16.771-14.193-19.881S84.393,55.6,81.328,63.4,71.34,88.269,57.962,88.186s-16.156,9.063-16.156,9.063L30.052,147.38Z" fill="#436e8e"></path>
          <path id="Path_1030" data-name="Path 1030" d="M69.283,167l-.662-.28,4.21-10.107c2.678-6.375,4.588-9.686,10.508-12.481l.305.649c-5.722,2.7-7.489,5.763-10.151,12.113Z" fill="#020202"></path>
          <path id="Path_1031" data-name="Path 1031" d="M109.41,37.706s5.9,19.629,5.611,28.251L109.795,65s-3.884-25.1-4.6-29.409c0,0,3.455-.172,4.215,2.116" fill="#436e8e"></path>
          <path id="Path_1032" data-name="Path 1032" d="M92.408,60.5c.1-.575,3.1-18.519-.715-28.765a3.7,3.7,0,0,0-3.9-.644s4.428,20.883.5,29.409h4.115Z" fill="#436e8e"></path>
          <path id="Path_1033" data-name="Path 1033" d="M110.657,66.579s-1.629-1.489-1.03-2.66a1.927,1.927,0,0,1,2.489-1.107l.074.031c.958.383,1.066,1.967.748,2.732s-1.707,1.656-2.281,1" fill="#331832"></path>
          <path id="Path_1034" data-name="Path 1034" d="M88.672,61.45s.784-1.625,1.957-1.944a1.658,1.658,0,0,1,2,1.944,1.7,1.7,0,0,1-2,1.7c-1.126-.069-2.212-.716-1.957-1.7" fill="#331832"></path>
        </g>
      </g>
      <g id="Group_1108" data-name="Group 1108" transform="translate(0 0)">
        <path id="Path_720" data-name="Path 720" d="M401.971,264.583s6.183.15,7.938,4.715,3.366,17.8,7.328,12.84c2.274-2.847.765-16.222.755-20s1.488-7.33-.834-10.129c-2.555-3.08-15.222.047-15.222.047a16.128,16.128,0,0,1,1.5,6.187,12.844,12.844,0,0,1-1.467,6.338" fill="#2f1a31"></path>
        <path id="Path_721" data-name="Path 721" d="M296.267,112.172C271.8,131.9,240.2,133.513,217.99,131.388l1.38-18.414c26.648,2.542,44.407-4.725,60.039-16.806,5.9-4.564,26.947,7.868,16.857,16" fill="#f7b686"></path>
        <path id="Path_722" data-name="Path 722" d="M267.088,266.943s-.156,6.754-4.34,8.659-16.308,3.625-11.778,7.967c2.6,2.491,14.854.881,18.31.881s6.706,1.646,9.276-.881c2.829-2.782,0-16.626,0-16.626a12.982,12.982,0,0,1-5.67,1.623,10.365,10.365,0,0,1-5.8-1.623" fill="#2f1a31"></path>
        <path id="Path_723" data-name="Path 723" d="M271.5,272.954c-7.111,1.718-14.274-2.637-16.68-10.145-1.585-4.95-3.487-10.928-5.47-17.266-9.266-29.606-4.244-45.178,3.65-54.06,11.9-13.387,71.465-30.88,72.09-30.988l5.65,38.971-2.829-19.484,2.829,19.484c0,9.371-53.742,12.62-50.384,30.181.724,3.783,1.435,8.371,2.6,13.806.8,3.74,1.641,7.323,2.433,10.555,1.968,8.024-2.6,16.217-10.024,18.011Z" fill="#436e8e"></path>
        <path id="Path_724" data-name="Path 724" d="M314.656,277.489c-11.322-15.189-9.842-70.128-4.313-104.2,3.608-22.231,47.858-22.978,47.332-5.462-.158,5.23-.729,11.046-1.053,17.525-1.528,30.582-11.208,54.51-8.538,57.822,3.814,4.727,36.639-.632,50.892,1.2a9.532,9.532,0,0,1,7.944,8.381l1.159,8.237c.675,4.8-2.853,7.75-7,9.486-23.551,9.861-74.8,22.6-86.422,7.014" fill="#436e8e"></path>
        <path id="Path_725" data-name="Path 725" d="M344.845,86.274s-6.459-13.378-34.314-7.248c-8.371,1.84-12.1,6.9-16.258,10.1-6.436,4.951-6.889,8.891-4.325,16.453,5.789,17.069,13.2,42.016-3.008,67.82,0,0,67.46,20.076,68.967-5.878,0-.006,9.7-44.664-11.062-81.248" fill="#e28569"></path>
        <path id="Path_726" data-name="Path 726" d="M358.626,98.128,338.36,95.585s-33.576,17.943-44.453,18.666-19.6-17.693-19.6-17.693,9.952-11.483,32.062-16.6c3.245-.752,6.467-1.57,9.7-2,44.285-5.835,42.557,20.17,42.557,20.17" fill="#e28569"></path>
        <path id="Path_727" data-name="Path 727" d="M313.652,74.44l-3.5-6.931-1.02-2.021-5.988-11.864,1.908,12.715L306.2,73.97l.363,2.415a7.335,7.335,0,0,1-.8,4.711c-.338.674-1.747,4.416,1.8,5.255,4.418,1.041,10.307-4.312,12.454-8.834-.023,0-4.95.2-6.361-3.077" fill="#f7b686"></path>
        <path id="Path_728" data-name="Path 728" d="M358.628,98.127c-.151.611-.852,1.042-1.973,1.289-2.7.6-7.818.153-13.49-1.337a42.75,42.75,0,0,1-10.627-4.168c-2.076-1.254-3.213-2.48-2.981-3.436.243-.994,1.93-1.508,4.5-1.547a43.015,43.015,0,0,1,10.962,1.6c5.807,1.525,10.6,3.727,12.617,5.624.771.719,1.132,1.4.991,1.98" fill="#2f1a31"></path>
        <path id="Path_729" data-name="Path 729" d="M292.994,50.951a18.42,18.42,0,0,0,1.307,6.915c1.459,3.681,3.256-6.581,3.256-6.581Z" fill="#56335b"></path>
        <path id="Path_730" data-name="Path 730" d="M303.716,44.4c5.8-.421,10.9,5.43,11.377,13.072s-3.836,14.178-9.639,14.6S294.554,66.642,294.077,59s3.835-14.178,9.639-14.6" fill="#f7b686"></path>
        <path id="Path_731" data-name="Path 731" d="M314.611,53.448l-5.1.559a3.525,3.525,0,0,1-3.031-1.177c-1.353-1.516-2.754-2.138-7.377-.9-5.846,1.572-10.466-1.39-11.746-4.618-1.3-3.293,1.277-6.3,4.547-5.331s1.242-2.762,4.009-3.831c5.173-2,7.016,2.258,11.347,1.131,5.678-1.477,16.807.958,14.028,13.035Z" fill="#2f1a31"></path>
        <path id="Path_732" data-name="Path 732" d="M303.936,57.787a.225.225,0,0,1-.13-.152.237.237,0,0,1,.145-.289,2.188,2.188,0,0,1,2.693.955.248.248,0,0,1-.036.326.22.22,0,0,1-.3-.038,3.429,3.429,0,0,0-2.237-.8.188.188,0,0,1-.13-.005" fill="#060633"></path>
        <path id="Path_733" data-name="Path 733" d="M305.395,60.512c-.032.556-.357.985-.726.96s-.642-.5-.606-1.051.357-.985.727-.96.639.5.6,1.051" fill="#060633"></path>
        <path id="Path_734" data-name="Path 734" d="M296.074,58.85a.148.148,0,0,1-.135-.087.3.3,0,0,1,.024-.327,1.423,1.423,0,0,1,1.973-.385,1.549,1.549,0,0,1,.207.17.292.292,0,0,1,.065.318.153.153,0,0,1-.192.1h0a.1.1,0,0,1-.032-.014,2.074,2.074,0,0,0-1.811.177.136.136,0,0,1-.1.047" fill="#060633"></path>
        <path id="Path_735" data-name="Path 735" d="M298.422,60.762c.164.527.013,1.059-.337,1.189s-.768-.191-.931-.718-.013-1.058.336-1.189.765.192.931.718" fill="#060633"></path>
        <path id="Path_736" data-name="Path 736" d="M321.293,52.319s-1.912,8.9-6.689,10.6c0,0,2.784-7.083-6.265-8.978,0,0,7.406-3.044,12.954-1.621" fill="#56335b"></path>
        <path id="Path_737" data-name="Path 737" d="M315.247,58.358a2.051,2.051,0,0,1-2.885.3h0a2.441,2.441,0,0,1-.184-.168,2.539,2.539,0,0,1,.22-3.347,2.051,2.051,0,0,1,2.885-.307h0a1.976,1.976,0,0,1,.185.169,2.536,2.536,0,0,1-.22,3.348" fill="#f7b686"></path>
        <path id="Path_738" data-name="Path 738" d="M308.342,53.94s1.955,6.669.928,8.245-9.314,4.021-13.541,3.25c.761,4.4,4.318,7.622,8.409,7.457a11.211,11.211,0,0,0,4-.918c2.642-1.141,5.074-2.98,5.679-6.012.184-.923-1.8-5.9-1.8-5.9s-.952-2.966.374-4.919a7.659,7.659,0,0,0-4.054-1.207" fill="#56335b"></path>
        <path id="Path_739" data-name="Path 739" d="M298.261,67.427a19.861,19.861,0,0,0,6.837-.937s.156,3.67-3.537,3.763c-2.14.054-3.3-2.826-3.3-2.826" fill="#fff"></path>
        <path id="Path_740" data-name="Path 740" d="M292.358,41.32l-.051-.3a1.415,1.415,0,0,0,1.259-1.528l.287-.034a1.743,1.743,0,0,1-1.5,1.864" fill="#2f1a31"></path>
        <path id="Path_741" data-name="Path 741" d="M297.094,50.505a17.888,17.888,0,0,1-3.516-.742c-2.392-.782-3.866-1.981-4.262-3.463a2.684,2.684,0,0,1,.116-2.279c.559-.778,1.779-.744,2.856-.712.161,0,.317.008.468.01v.153c-.152,0-.3-.005-.469-.01-1.043-.029-2.223-.063-2.738.653a2.543,2.543,0,0,0-.091,2.14c.927,3.47,7.584,4.087,7.65,4.093Z" fill="#fff"></path>
        <path id="Path_742" data-name="Path 742" d="M305.593,40.852a9.781,9.781,0,0,1-2.819-.4,7.542,7.542,0,0,1-2.612-1.314l.091-.121a7.587,7.587,0,0,0,2.568,1.287,10.831,10.831,0,0,0,7.083-.446l.048.147a12.135,12.135,0,0,1-4.358.851" fill="#fff"></path>
        <path id="Path_743" data-name="Path 743" d="M306.488,212.376h-.007a.283.283,0,0,1-.264-.3h0l.441-16.391a8.2,8.2,0,0,0-3.461-5.244.3.3,0,0,1-.1-.4.26.26,0,0,1,.351-.113l.02.011a8.632,8.632,0,0,1,3.727,5.693.194.194,0,0,1,0,.048l-.442,16.416a.283.283,0,0,1-.264.287" fill="#2f1a31"></path>
        <path id="Path_744" data-name="Path 744" d="M292.332,107.86s21.71-8.286,27.678-2.284,12.266,24.737,24.08,27,16.219,4.454,16.219,4.454.091,50.742-7.414,77.421l-47.653-28.383-24.275-10.282s9.518-7.891,10.236-16.865-6.939-48.521,1.129-51.061" fill="#436e8e"></path>
        <path id="Path_747" data-name="Path 747" d="M300.212,81.633s-7.953,15.317-7.223,29.451l4.8-.27s1.406-21.2,6.587-30.367a4.13,4.13,0,0,0-4.163,1.186" fill="#436e8e"></path>
        <path id="Path_748" data-name="Path 748" d="M314.818,105.575c-.161-.774,2.67-22.3,8.737-28.468,0,0,2.829-1.187,4.178,0,0,0-7.894,19.152-7.721,29.9Z" fill="#436e8e"></path>
        <path id="Path_749" data-name="Path 749" d="M293.914,109a1.911,1.911,0,0,1,1.819-1.988c1.005,0,1.589.921,1.819,1.988.317,1.468-.814,1.989-1.819,1.989A1.909,1.909,0,0,1,293.914,109" fill="#2f1a31"></path>
        <path id="Path_750" data-name="Path 750" d="M314.812,106.347a1.908,1.908,0,0,1,1.819-1.986c1,0,1.589.919,1.819,1.986.317,1.47-.814,1.989-1.819,1.989a1.912,1.912,0,0,1-1.819-1.989" fill="#2f1a31"></path>
        <g id="Group_1110" data-name="Group 1110">
          <path id="Path_751" data-name="Path 751" d="M275.416,281.606H76.323c-6.741,0-12.2-3.862-12.2-8.626V125.127c0-4.651,5.219-8.465,11.8-8.62l206.741-4.87c7.067-.167,12.854,3.932,12.6,8.926l-7.653,152.723c-.232,4.642-5.625,8.32-12.2,8.32" fill="#97a7e1"></path>
          <path id="Path_752" data-name="Path 752" d="M221.622,196.755A66.618,66.618,0,1,1,155,130.137h0a66.617,66.617,0,0,1,66.618,66.616v0" fill="#bdd1f8"></path>
          <path id="Path_753" data-name="Path 753" d="M217.459,196.755A62.454,62.454,0,1,1,155.005,134.3h0a62.453,62.453,0,0,1,62.454,62.454" fill="#2f1931"></path>
          <path id="Path_754" data-name="Path 754" d="M169.426,161.265c0,13.612-7.208,29.536-16.1,29.536s1.256-18.385-16.1-29.536c-10.827-6.956,7.208-19.758,16.1-19.758s16.1,6.146,16.1,19.758" fill="#97a7e1"></path>
          <path id="Path_755" data-name="Path 755" d="M138.043,228.56c0-13.612,7.208-29.536,16.1-29.536s-1.252,18.385,16.1,29.536c10.827,6.956-7.208,19.758-16.1,19.758s-16.1-6.146-16.1-19.758" fill="#97a7e1"></path>
          <path id="Path_756" data-name="Path 756" d="M120.087,179.22c13.612,0,29.536,7.208,29.536,16.1s-18.385-1.256-29.536,16.1c-6.956,10.827-19.758-7.208-19.758-16.1s6.146-16.1,19.758-16.1" fill="#97a7e1"></path>
          <path id="Path_757" data-name="Path 757" d="M187.382,210.6c-13.612,0-29.536-7.208-29.536-16.1s18.385,1.256,29.536-16.1c6.956-10.827,19.758,7.208,19.758,16.1s-6.146,16.1-19.758,16.1" fill="#97a7e1"></path>
          <path id="Path_758" data-name="Path 758" d="M166.875,195.143a12.988,12.988,0,1,1-12.988-12.988,12.987,12.987,0,0,1,12.988,12.988v0" fill="#bdd1f8"></path>
          <path id="Path_759" data-name="Path 759" d="M273.528,147.587H223.564a2.441,2.441,0,0,1,0-4.882h49.964a2.441,2.441,0,0,1,0,4.882h0" fill="#bdd1f8"></path>
          <path id="Path_760" data-name="Path 760" d="M273.528,155.627H223.564a2.441,2.441,0,0,1,0-4.882h49.964a2.441,2.441,0,0,1,0,4.882h0" fill="#bdd1f8"></path>
          <path id="Path_761" data-name="Path 761" d="M273.528,163.671H223.564a2.441,2.441,0,0,1,0-4.881h49.964a2.441,2.441,0,1,1,0,4.881" fill="#bdd1f8"></path>
          <path id="Path_762" data-name="Path 762" d="M222.625,126.729a6.03,6.03,0,1,1-6.03-6.03h0a6.03,6.03,0,0,1,6.03,6.03" fill="#bdd1f8"></path>
          <path id="Path_763" data-name="Path 763" d="M220.9,126.441a4.307,4.307,0,1,1-4.307-4.307,4.307,4.307,0,0,1,4.307,4.307v0" fill="#97a7e1"></path>
          <path id="Path_764" data-name="Path 764" d="M242.436,126.729a6.03,6.03,0,1,1-6.03-6.03h0a6.03,6.03,0,0,1,6.03,6.03" fill="#bdd1f8"></path>
          <path id="Path_765" data-name="Path 765" d="M240.713,126.441a4.307,4.307,0,1,1-4.307-4.307,4.307,4.307,0,0,1,4.307,4.307h0" fill="#97a7e1"></path>
          <path id="Path_766" data-name="Path 766" d="M73.025,185.194a.357.357,0,0,1-.357-.357V132.911a9.023,9.023,0,0,1,8.4-8.979l43.9-2.91a.361.361,0,0,1,.379.332.356.356,0,0,1-.332.38l-43.9,2.91a8.307,8.307,0,0,0-7.736,8.267v51.926a.357.357,0,0,1-.357.357" fill="#bdd0fb"></path>
          <path id="Path_767" data-name="Path 767" d="M274.055,274.5H234.113a.357.357,0,0,1-.037-.713.227.227,0,0,1,.037,0h39.943a6.447,6.447,0,0,0,6.462-6.229l2.053-55.452a.345.345,0,0,1,.345-.345h.025a.357.357,0,0,1,.344.369h0l-2.053,55.453a7.157,7.157,0,0,1-7.176,6.915" fill="#bdd0fb"></path>
        </g>
        <path id="Path_768" data-name="Path 768" d="M266.712,141.969s-6.632-5.76-11.52-4.84-10.494,6.137-7.352,6.265a30.084,30.084,0,0,0,7.2-.91s-8.57,2.675-7.129,4.593,8.873-.485,8.873-.485-9.965,4.07-8.068,5.4,9.448-1.819,9.448-1.819-9.133,4.19-6.9,5.68,7.527-3.518,8.968-1.6,7.758,9,13.128,5.283Z" fill="#f7b686"></path>
        <path id="Path_769" data-name="Path 769" d="M255.114,142.663l-.155-.359c.1-.051,2.438-1.193,3.832-.266l-.194.338c-1.227-.819-3.46.277-3.483.287" fill="#dd8964"></path>
        <path id="Path_770" data-name="Path 770" d="M256.863,146.767l-.162-.357a5.944,5.944,0,0,1,4.513-.335l-.127.371a5.7,5.7,0,0,0-4.224.321" fill="#dd8964"></path>
        <path id="Path_771" data-name="Path 771" d="M258.24,150.351l-.155-.36c.116-.06,2.88-1.415,4.29-.289l-.219.318c-1.235-.986-3.888.318-3.916.33" fill="#dd8964"></path>
        <path id="Path_745" data-name="Path 745" d="M357.636,96.144c-.226.86-.545,1.96-.98,3.269a78.863,78.863,0,0,1-14.693,25.556c-20.833,24.6-51.552,32.854-73.658,35.439l-1.591-18.443c26.528-3.108,42.773-14.014,56.166-29.221,5.052-5.741,8.114-13.79,9.657-18.838.863-2.8,1.256-4.683,1.261-4.717.082-.092.169-.18.26-.264a43.064,43.064,0,0,1,10.962,1.6c5.806,1.525,10.6,3.727,12.615,5.623" fill="#f7b686"></path>
        <g id="Group_934" data-name="Group 934" opacity="0.5">
          <g id="Group_933" data-name="Group 933">
            <g id="Group_7943" data-name="Group 7943">
              <g id="Group_932" data-name="Group 932">
                <path id="Path_746" data-name="Path 746" d="M318.479,138.15c-.079,0-.159,0-.237-.007a2.546,2.546,0,0,1-1.88-.96c-1.213-1.547-.566-4.315,1.465-6.3a5.419,5.419,0,0,1,3.953-1.741,2.531,2.531,0,0,1,1.879.959c1.213,1.546.567,4.317-1.466,6.3a5.585,5.585,0,0,1-3.714,1.749m3.057-8.048a4.721,4.721,0,0,0-3.1,1.5c-1.617,1.58-2.246,3.848-1.38,4.952a1.7,1.7,0,0,0,1.246.614,4.568,4.568,0,0,0,3.281-1.49c1.617-1.58,2.247-3.848,1.382-4.951a1.7,1.7,0,0,0-1.246-.614c-.06,0-.121-.005-.184-.005Z" fill="#e08b65"></path>
              </g>
            </g>
          </g>
        </g>
      </g>
      <g id="Group_1109" data-name="Group 1109" transform="translate(0 0)">
        <path id="Path_1047" data-name="Path 1047" d="M136.418,106.738l-4.362,14.211C97.3,102.878,70.7,73.705,64.917,66.307c-.85-1.088-.79-2.466-.756-3.851.064-2.633,1.036-5.933,4.293-9.477,4.148-4.515,8.52-4.653,9.374-3.59,6.247,7.78,28.571,41.743,58.589,57.349" fill="#ffb27d"></path>
        <path id="Path_1048" data-name="Path 1048" d="M136.4,125.814c-.547-.422-1.024-.793-1.387-1.067a4.406,4.406,0,0,1-.744-.7,39.656,39.656,0,0,1-6.214-6.68s4.889-10.56,6.049-10.641c2.677-.186,8.04.65,10.72.516,1.162-.058,5.083.018,5.3,1.174.186,1-2.955,2.436-4.532,2.936,6.518,4.1,17.122,11.306-.062,5.43l-.013.024c1.374.9,10.993,6.494,9.083,7.867-1.685,1.211-9.282-2.726-11.557-4.185l-.047.059c2.185,1.686,8.669,6.1,6.7,6.731-2.476.787-10.035-2.963-10.035-2.963s5.808,4.191,4.059,4.928c-1.569.662-4.705-1.419-7.313-3.428h0" fill="#ffb27d"></path>
      </g>
    </g>
  </g>
</svg>