<svg xmlns="http://www.w3.org/2000/svg" width="295.854" height="282.551" viewBox="0 0 295.854 282.551">
  <g id="AMC_CONTRACT" data-name="AMC CONTRACT" transform="translate(147.927 141.275)">
    <g id="Group_7963" data-name="Group 7963" transform="translate(-147.927 -141.276)">
      <g id="Group_958" data-name="Group 958" transform="translate(0 0)">
        <g id="Group_7962" data-name="Group 7962">
          <g id="Group_957" data-name="Group 957">
            <path id="Path_891" data-name="Path 891" d="M225.1,214.7l-140,2.5A10.928,10.928,0,0,1,74,206.5L70.1,20A10.825,10.825,0,0,1,80.6,8.9L230.9,3.1a10.926,10.926,0,0,1,11.3,10.541q.014.379,0,.759l-6.4,189.7A10.961,10.961,0,0,1,225.1,214.7Z" fill="#764678"></path>
            <path id="Path_892" data-name="Path 892" d="M225,192.7a9.637,9.637,0,0,1-9.4,9.3l-123,2.1a9.669,9.669,0,0,1-9.8-9.4L81.7,25.6a4.3,4.3,0,0,1,4.1-4.3l136.5-5.2a7.927,7.927,0,0,1,8.3,7.536,7.488,7.488,0,0,1,0,.764Z" fill="#daebe8"></path>
            <path id="Path_893" data-name="Path 893" d="M120.2,22.1l65-2.1a5.287,5.287,0,0,0,5.123-5.448c0-.118-.011-.235-.023-.352l-.5-4.9A10.369,10.369,0,0,0,179.2,0L127.4,1.3A10.888,10.888,0,0,0,116.8,11l-.7,6.4a3.972,3.972,0,0,0,4.1,4.7Z" fill="#ef8062"></path>
            <path id="Path_894" data-name="Path 894" d="M200.2,78.9l-95-.9c-2.2,0-4-.8-4-1.7h0c0-.9,1.8-1.7,4.1-1.7H200c2.1,0,3.8.6,4.1,1.5l.3.9C204.7,78,202.7,78.9,200.2,78.9Z" fill="#b8d5dc"></path>
            <path id="Path_895" data-name="Path 895" d="M200.2,86.4l-95-.9c-2.2,0-4-.8-4-1.7h0c0-.9,1.8-1.7,4.1-1.7H200c2.1,0,3.8.6,4.1,1.5l.3.9C204.7,85.5,202.7,86.4,200.2,86.4Z" fill="#b8d5dc"></path>
            <path id="Path_896" data-name="Path 896" d="M200.2,114.2l-95-.9c-2.2,0-4-.8-4-1.7h0c0-.9,1.8-1.7,4.1-1.7H200c2.1,0,3.8.6,4.1,1.5l.3.9C204.7,113.4,202.7,114.2,200.2,114.2Z" fill="#b8d5dc"></path>
            <path id="Path_897" data-name="Path 897" d="M200.2,122.8l-95-.9c-2.2,0-4-.8-4-1.7h0c0-.9,1.8-1.7,4.1-1.7H200c2.1,0,3.8.6,4.1,1.5l.3.9C204.7,121.9,202.7,122.8,200.2,122.8Z" fill="#b8d5dc"></path>
            <path id="Path_898" data-name="Path 898" d="M200.2,148.5l-95-.9c-2.2,0-4-.8-4-1.7h0c0-.9,1.8-1.7,4.1-1.7H200c2.1,0,3.8.6,4.1,1.5l.3.9C204.7,147.6,202.7,148.5,200.2,148.5Z" fill="#b8d5dc"></path>
            <path id="Path_899" data-name="Path 899" d="M200.2,157.1l-95-.9c-2.2,0-4-.8-4-1.7h0c0-.9,1.8-1.7,4.1-1.7H200c2.1,0,3.8.6,4.1,1.5l.3.9C204.7,156.2,202.7,157.1,200.2,157.1Z" fill="#b8d5dc"></path>
            <g id="Group_947" data-name="Group 947">
              <path id="Path_900" data-name="Path 900" d="M114,56.9h-2.5l-.7-1.9h-3.4l-.7,1.9h-2.4l3.5-9.3h2.8Zm-3.8-3.6L109.1,50,108,53.3Z" fill="#13143b"></path>
              <path id="Path_901" data-name="Path 901" d="M125.1,56.9h-2.4V50.6L121,54.7h-1.7l-1.7-4.1v6.3h-2.3V47.6h2.8l2.1,4.7,2.1-4.7h2.8Z" fill="#13143b"></path>
              <path id="Path_902" data-name="Path 902" d="M131.7,57.1a5.819,5.819,0,0,1-1.9-.3,3.769,3.769,0,0,1-1.5-.9,3.966,3.966,0,0,1-1-1.5,6.667,6.667,0,0,1-.3-2.1,6.492,6.492,0,0,1,.3-2,3.925,3.925,0,0,1,1-1.6,5.616,5.616,0,0,1,1.5-1,6.433,6.433,0,0,1,2-.3,4.106,4.106,0,0,1,1.1.1c.4.1.6.1.9.2s.5.2.8.3l.6.3v2.3h-.3c-.1-.1-.3-.2-.4-.4-.2-.1-.4-.3-.6-.4s-.5-.2-.7-.3a2.76,2.76,0,0,0-.9-.1,3.561,3.561,0,0,0-1,.2,2.177,2.177,0,0,0-.8.5,7.148,7.148,0,0,0-.6.9,3.183,3.183,0,0,0-.2,1.4,6.081,6.081,0,0,0,.2,1.5,3.511,3.511,0,0,0,.6.9,2.639,2.639,0,0,0,.9.5,3.107,3.107,0,0,0,.9.1,2.787,2.787,0,0,0,.9-.1,2.006,2.006,0,0,0,.8-.4,2.092,2.092,0,0,0,.6-.4c.2-.1.3-.3.4-.4h.3v2.2c-.2.1-.5.2-.7.3a1.448,1.448,0,0,1-.7.2,2.924,2.924,0,0,1-.9.2A5.3,5.3,0,0,1,131.7,57.1Z" fill="#13143b"></path>
              <path id="Path_903" data-name="Path 903" d="M145.4,57.1a5.819,5.819,0,0,1-1.9-.3,3.769,3.769,0,0,1-1.5-.9,3.966,3.966,0,0,1-1-1.5,6.667,6.667,0,0,1-.3-2.1,6.493,6.493,0,0,1,.3-2,3.925,3.925,0,0,1,1-1.6,5.616,5.616,0,0,1,1.5-1,6.433,6.433,0,0,1,2-.3,4.106,4.106,0,0,1,1.1.1c.4.1.6.1.9.2s.5.2.8.3l.6.3v2.3h-.5c-.1-.1-.3-.2-.4-.4-.2-.1-.4-.3-.6-.4s-.5-.2-.7-.3a2.76,2.76,0,0,0-.9-.1,3.561,3.561,0,0,0-1,.2,2.177,2.177,0,0,0-.8.5,7.148,7.148,0,0,0-.6.9,3.183,3.183,0,0,0-.2,1.4,6.081,6.081,0,0,0,.2,1.5,3.511,3.511,0,0,0,.6.9,2.639,2.639,0,0,0,.9.5,3.107,3.107,0,0,0,.9.1,2.787,2.787,0,0,0,.9-.1,2.006,2.006,0,0,0,.8-.4,2.092,2.092,0,0,0,.6-.4c.2-.1.3-.3.4-.4h.3v2.2c-.2.1-.5.2-.7.3a1.448,1.448,0,0,1-.7.2,2.924,2.924,0,0,1-.9.2A3.091,3.091,0,0,1,145.4,57.1Z" fill="#13143b"></path>
              <path id="Path_904" data-name="Path 904" d="M157.6,53.4a3.333,3.333,0,0,1-1,2.7,3.7,3.7,0,0,1-2.8,1,3.56,3.56,0,0,1-2.8-1,3.622,3.622,0,0,1-1-2.7,3.338,3.338,0,0,1,1-2.7,3.7,3.7,0,0,1,2.8-1,3.942,3.942,0,0,1,2.9,1A4.137,4.137,0,0,1,157.6,53.4Zm-2.8,1.7c.1-.2.3-.4.3-.6a3.4,3.4,0,0,0,.1-1.1,2.767,2.767,0,0,0-.1-1,4.7,4.7,0,0,0-.3-.7,1,1,0,0,0-.5-.4,1.854,1.854,0,0,0-1.2,0,1.775,1.775,0,0,0-.5.4,4.914,4.914,0,0,0-.3.7,3.453,3.453,0,0,0-.1,1.1,3.122,3.122,0,0,0,.1,1,4.914,4.914,0,0,0,.3.7,1,1,0,0,0,.5.4,1.854,1.854,0,0,0,1.2,0C154.5,55.4,154.7,55.3,154.8,55.1Z" fill="#13143b"></path>
              <path id="Path_905" data-name="Path 905" d="M166.3,56.9H164V52.5a.843.843,0,0,0-.2-.6c-.1-.2-.2-.3-.4-.3a1.48,1.48,0,0,0-.7-.1,1.261,1.261,0,0,0-.6.1,4.915,4.915,0,0,1-.7.3v5h-2.3v-7h2.3v.8a3.743,3.743,0,0,1,1.2-.7,2.655,2.655,0,0,1,1.2-.3,2.139,2.139,0,0,1,1.8.7,2.809,2.809,0,0,1,.6,2v4.5Z" fill="#13143b"></path>
              <path id="Path_906" data-name="Path 906" d="M172.9,56.9a1.939,1.939,0,0,1-.8.1c-.3,0-.6.1-1,.1a3.684,3.684,0,0,1-2-.5,2.448,2.448,0,0,1-.6-1.8V51.5h-.9V50h.9V48h2.3v2h2.1v1.5h-2.1v3.1a.755.755,0,0,0,.1.5c.1.1.2.3.3.3.1.1.4.1.6.1a1.088,1.088,0,0,0,.5-.1.758.758,0,0,1,.4-.1h.2Z" fill="#13143b"></path>
              <path id="Path_907" data-name="Path 907" d="M179.3,52h-.2a4.212,4.212,0,0,0-.5-.1h-.5a2.766,2.766,0,0,0-.9.1c-.3.1-.5.1-.8.2v4.7h-2.3v-7h2.3v1a7.744,7.744,0,0,1,1.3-.9,1.978,1.978,0,0,1,1-.2h.6V52Z" fill="#13143b"></path>
              <path id="Path_908" data-name="Path 908" d="M184.9,56.2a2.148,2.148,0,0,1-.5.3c-.2.1-.3.2-.5.3a1.855,1.855,0,0,1-.7.2c-.2,0-.5.1-.8.1a2.523,2.523,0,0,1-1.7-.6,1.866,1.866,0,0,1-.7-1.6,2.78,2.78,0,0,1,.3-1.3,2.725,2.725,0,0,1,1-.8,5.312,5.312,0,0,1,1.6-.4c.7-.1,1.3-.1,1.9-.2h0a.79.79,0,0,0-.5-.8,4.635,4.635,0,0,0-1.4-.2,5.045,5.045,0,0,0-1.2.2,4.686,4.686,0,0,0-.9.3h-.2V50a7.073,7.073,0,0,1,1.2-.2,8.576,8.576,0,0,1,1.6-.1,5.061,5.061,0,0,1,2.8.6,2.079,2.079,0,0,1,.9,1.9V57h-2.2v-.8Zm0-1.1V53.6c-.3,0-.6.1-1,.1a1.548,1.548,0,0,0-.8.2,2.191,2.191,0,0,0-.5.3.767.767,0,0,0-.2.5v.4c0,.1.1.2.2.3s.2.1.3.2a3.6,3.6,0,0,0,.6.1,1.7,1.7,0,0,0,.7-.1C184.4,55.5,184.7,55.2,184.9,55.1Z" fill="#13143b"></path>
              <path id="Path_909" data-name="Path 909" d="M192.9,57.1a8.769,8.769,0,0,1-1.7-.2A3.462,3.462,0,0,1,189,55a4.172,4.172,0,0,1-.3-1.6,4.335,4.335,0,0,1,.3-1.7,2.739,2.739,0,0,1,.9-1.2,5.422,5.422,0,0,1,1.3-.7,4.138,4.138,0,0,1,1.6-.2,5.055,5.055,0,0,1,1.3.2,3.562,3.562,0,0,1,1.1.4v1.9h-.3l-.3-.3a2.149,2.149,0,0,0-.5-.3,1.419,1.419,0,0,0-.6-.2,1.48,1.48,0,0,0-.7-.1,1.676,1.676,0,0,0-1.4.6,2.553,2.553,0,0,0-.5,1.6,2.075,2.075,0,0,0,.5,1.5,1.625,1.625,0,0,0,1.4.5,2.21,2.21,0,0,0,.8-.1c.2-.1.4-.1.6-.2.1-.1.3-.2.4-.3l.3-.3h.3v1.9a4.877,4.877,0,0,1-1.1.4A1.675,1.675,0,0,1,192.9,57.1Z" fill="#13143b"></path>
              <path id="Path_910" data-name="Path 910" d="M201.3,56.9a1.939,1.939,0,0,1-.8.1c-.3,0-.6.1-1,.1a3.684,3.684,0,0,1-2-.5,2.448,2.448,0,0,1-.6-1.8V51.5H196V50h.9V48h2.3v2h2.1v1.5h-2.1v3.1a.755.755,0,0,0,.1.5c.1.1.2.3.3.3.1.1.4.1.6.1a1.088,1.088,0,0,0,.5-.1.758.758,0,0,1,.4-.1h.2Z" fill="#13143b"></path>
            </g>
            <g id="OCT_-_PRIMARY_-_LOGOTYPE" data-name="OCT - PRIMARY - LOGOTYPE">
              <g id="Group_956" data-name="Group 956">
                <g id="Group_7961" data-name="Group 7961">
                  <g id="Group_955" data-name="Group 955">
                    <g id="Group_7954" data-name="Group 7954">
                      <g id="Group_948" data-name="Group 948">
                        <path id="Path_911" data-name="Path 911" d="M137.864,34.758a.894.894,0,0,0,.5-.1c.1-.1.3-.2.4-.3s.2-.3.3-.4a.894.894,0,0,0,.1-.5.749.749,0,0,0-.1-.5c-.1-.2-.1-.3-.3-.4a1.387,1.387,0,0,0-.4-.3.749.749,0,0,0-.5-.1.9.9,0,0,0-.5.1c-.1.1-.3.2-.4.3s-.2.3-.3.4a.9.9,0,0,0-.1.5.749.749,0,0,0,.1.5c.1.2.1.3.3.4a1.382,1.382,0,0,0,.4.3.9.9,0,0,0,.5.1m-2.9-1.3a3.586,3.586,0,0,1,.2-1.1l.6-.9a4.718,4.718,0,0,1,.9-.6,4.242,4.242,0,0,1,1.1-.2,3.616,3.616,0,0,1,1.1.2,1.457,1.457,0,0,1,.9.6c.2.3.5.5.6.9a1.975,1.975,0,0,1,.2,1.1,3.586,3.586,0,0,1-.2,1.1l-.6.9c-.2.3-.6.4-.9.6a4.242,4.242,0,0,1-1.1.2,3.586,3.586,0,0,1-1.1-.2,1.457,1.457,0,0,1-.9-.6,1.8,1.8,0,0,1-.6-.9,1.984,1.984,0,0,1-.2-1.1" fill="#c028b9"></path>
                      </g>
                    </g>
                    <g id="Group_7955" data-name="Group 7955">
                      <g id="Group_949" data-name="Group 949">
                        <path id="Path_912" data-name="Path 912" d="M146.264,35.658c-.1,0-.2.1-.3.2s-.3.1-.5.2-.4.1-.6.2c-.2,0-.5.1-.8.1a4.242,4.242,0,0,1-1.1-.2,1.937,1.937,0,0,1-.9-.5,1.457,1.457,0,0,1-.6-.9,2.546,2.546,0,0,1-.2-1.2,5.044,5.044,0,0,1,.2-1.2,7.042,7.042,0,0,1,.6-.9,4.085,4.085,0,0,1,.9-.5,4.242,4.242,0,0,1,1.1-.2,3.091,3.091,0,0,1,1,.1c.3.1.6.2.7.4.1.1.1.2.2.2,0,.1.1.2.1.3a.366.366,0,0,1-.1.3c0,.1-.1.2-.2.3l-.2.2c-.1.1-.1.1-.2.1a2.169,2.169,0,0,0-.5-.3,1.885,1.885,0,0,0-.8-.2.749.749,0,0,0-.5.1c-.2.1-.3.1-.4.3-.1.1-.2.3-.3.4a1.854,1.854,0,0,0,0,1.2,1.386,1.386,0,0,0,.3.4.755.755,0,0,0,.4.2c.2,0,.3.1.5.1h.4c.1,0,.3-.1.4-.1s.2-.1.3-.1a.1.1,0,0,0,.1-.1Z" fill="#c028b9"></path>
                      </g>
                    </g>
                    <g id="Group_7956" data-name="Group 7956">
                      <g id="Group_950" data-name="Group 950">
                        <path id="Path_913" data-name="Path 913" d="M146.664,29.958a.848.848,0,0,1,.2-.6,1.428,1.428,0,0,1,.6-.2.749.749,0,0,1,.5.1.441.441,0,0,1,.3.1v1.5h1.2a1.448,1.448,0,0,1,.7.2.843.843,0,0,1,.2.6.894.894,0,0,1-.1.5.777.777,0,0,0-.1.3h-1.9v1.6c0,.2,0,.3.1.4a.215.215,0,0,0,.2.2.366.366,0,0,0,.3.1h.3a.749.749,0,0,0,.5-.1c.2-.1.3-.1.3-.2l.7,1.1c-.1.1-.2.1-.3.2s-.3.1-.4.2-.4.1-.6.2c-.2,0-.4.1-.7.1a2.066,2.066,0,0,1-1.5-.5,1.681,1.681,0,0,1-.6-1.4v-4.4Z" fill="#c028b9"></path>
                      </g>
                    </g>
                    <g id="Group_7957" data-name="Group 7957">
                      <g id="Group_951" data-name="Group 951">
                        <path id="Path_914" data-name="Path 914" d="M153.664,34.758a.894.894,0,0,0,.5-.1c.1-.1.3-.2.4-.3s.2-.3.3-.4a.894.894,0,0,0,.1-.5.749.749,0,0,0-.1-.5c-.1-.2-.1-.3-.3-.4a1.386,1.386,0,0,0-.4-.3.749.749,0,0,0-.5-.1.9.9,0,0,0-.5.1c-.1.1-.3.2-.4.3s-.2.3-.3.4a.9.9,0,0,0-.1.5.749.749,0,0,0,.1.5c.1.2.1.3.3.4a1.382,1.382,0,0,0,.4.3.9.9,0,0,0,.5.1m-2.9-1.3a3.586,3.586,0,0,1,.2-1.1l.6-.9a4.718,4.718,0,0,1,.9-.6,4.242,4.242,0,0,1,1.1-.2,3.616,3.616,0,0,1,1.1.2,1.457,1.457,0,0,1,.9.6,1.8,1.8,0,0,1,.6.9,1.975,1.975,0,0,1,.2,1.1,3.586,3.586,0,0,1-.2,1.1l-.6.9a4.672,4.672,0,0,1-.9.6,4.242,4.242,0,0,1-1.1.2,3.586,3.586,0,0,1-1.1-.2,1.457,1.457,0,0,1-.9-.6,1.8,1.8,0,0,1-.6-.9,3.586,3.586,0,0,1-.2-1.1" fill="#c028b9"></path>
                      </g>
                    </g>
                    <g id="Group_7958" data-name="Group 7958">
                      <g id="Group_952" data-name="Group 952">
                        <path id="Path_915" data-name="Path 915" d="M159.864,34.758a1.253,1.253,0,1,0,0-2.5,1.617,1.617,0,0,0-.9.3,1.225,1.225,0,0,0-.3.9.749.749,0,0,0,.1.5c.1.2.1.3.3.4a1.382,1.382,0,0,0,.4.3.6.6,0,0,0,.4.1m-2.8,3.5v-4.5a4.889,4.889,0,0,1,.1-1.2,2.013,2.013,0,0,1,.4-.8,3.907,3.907,0,0,1,1-.8,3.208,3.208,0,0,1,1.4-.3,3.616,3.616,0,0,1,1.1.2,2.758,2.758,0,0,1,1.5,1.5,3.121,3.121,0,0,1,0,2.2,2.344,2.344,0,0,1-.6.9,5.494,5.494,0,0,1-.8.6,2.6,2.6,0,0,1-2,0,1.283,1.283,0,0,1-.6-.4v2.5h-1.5Z" fill="#c028b9"></path>
                      </g>
                    </g>
                    <g id="Group_7959" data-name="Group 7959">
                      <g id="Group_953" data-name="Group 953">
                        <path id="Path_916" data-name="Path 916" d="M164.964,33.658c0,.7.3,1.1,1,1.1s1-.4,1-1.1v-2.1a.848.848,0,0,1,.2-.6,1.428,1.428,0,0,1,.6-.2.749.749,0,0,1,.5.1.441.441,0,0,1,.3.1v3a2.949,2.949,0,0,1-.2,1,1.342,1.342,0,0,1-.6.7,2,2,0,0,1-.8.4,3.736,3.736,0,0,1-1.1.1,4.073,4.073,0,0,1-1.1-.1,2,2,0,0,1-.8-.4,4.359,4.359,0,0,1-.6-.7,2.973,2.973,0,0,1-.2-1v-2.4a.848.848,0,0,1,.2-.6,1.428,1.428,0,0,1,.6-.2.749.749,0,0,1,.5.1.441.441,0,0,1,.3.1v2.7Z" fill="#c028b9"></path>
                      </g>
                    </g>
                    <g id="Group_7960" data-name="Group 7960">
                      <g id="Group_954" data-name="Group 954">
                        <path id="Path_917" data-name="Path 917" d="M169.464,34.458c.1,0,.1.1.3.2.1.1.3.1.5.2a1.261,1.261,0,0,0,.6.1c.2,0,.5.1.7.1.3,0,.5,0,.6-.1s.2-.1.2-.3c0-.1-.1-.2-.2-.3s-.3-.1-.6-.1l-.5-.1a2.36,2.36,0,0,1-.8-.2,4.8,4.8,0,0,1-.7-.3c-.2-.1-.3-.3-.5-.5a1.885,1.885,0,0,1-.2-.8,1.482,1.482,0,0,1,.1-.7,2.106,2.106,0,0,1,.4-.6,2.013,2.013,0,0,1,.8-.4,6.115,6.115,0,0,1,2.2,0c.3.1.6.1.8.3l.3.3c.1.1.1.2.1.4a.366.366,0,0,1-.1.3.215.215,0,0,1-.2.2c-.1.1-.1.1-.2.1a.1.1,0,0,0-.1.1.354.354,0,0,0-.2-.1c-.1-.1-.2-.1-.4-.2a1.087,1.087,0,0,0-.6-.1c-.2,0-.5-.1-.7-.1a1.494,1.494,0,0,0-.7.1c-.1.1-.2.2-.2.3s.1.2.2.3a4.3,4.3,0,0,0,.5.1l1,.1a1.866,1.866,0,0,1,.7.2l.6.3a1,1,0,0,1,.4.5,1.454,1.454,0,0,1,.2.7,1.622,1.622,0,0,1-.7,1.4,3.2,3.2,0,0,1-1.8.5,3.739,3.739,0,0,1-1.1-.1c-.3-.1-.6-.1-.8-.2s-.4-.1-.6-.2c-.1-.1-.2-.1-.3-.2Z" fill="#c028b9"></path>
                      </g>
                    </g>
                  </g>
                </g>
              </g>
            </g>
          </g>
        </g>
      </g>
      <g id="Group_1102" data-name="Group 1102" transform="translate(0 0)">
        <path id="Path_918" data-name="Path 918" d="M213.6,148.9c1.4,11.4,6.7,14.3,6.7,14.3,2.2-.4,7.3-2,7.3-2,0-10-2.3-12.3-2.3-12.3Z" fill="#f7b686"></path>
        <g id="Group_961" data-name="Group 961">
          <g id="Group_960" data-name="Group 960">
            <g id="Group_959" data-name="Group 959">
              <path id="Path_919" data-name="Path 919" d="M235.9,70c-.3.7-.6,1.4-.9,2a77.512,77.512,0,0,0-2.6,7.8,45.277,45.277,0,0,0-1.4,7.5V88c-.9,10,.8,21.5,1.5,31.9.1.9.1,1.7.2,2.6v.5h0a51.781,51.781,0,0,1-.7,13.9c-.2.8-.4,1.5-.6,2.2a15.74,15.74,0,0,1-.7,2,27.463,27.463,0,0,1-5.3,6.6s-.1,2.9-.9,3.1c0,0-2.6,2.3-3,2.3-7.5-.1-10.1,0-10.4-2.1,0,0-3.2-14.3-3.6-20.1v-1.2c-.3-4.8-.6-9.4-.6-13.9q-.15-7.5.3-14.4h0v-.5A115.271,115.271,0,0,1,210,81.1c3.6-14.6,7.4-19.2,8.6-20.2,1.3-.9,5.8-.7,9.6,0a5.238,5.238,0,0,1,2,.6C234.1,63.2,236.9,67.7,235.9,70Z" fill="#fff"></path>
            </g>
          </g>
        </g>
        <g id="Group_962" data-name="Group 962">
          <path id="Path_920" data-name="Path 920" d="M243.5,268.2s-.3,5-3.7,6.3-13.2,2.3-9.7,5.6c2,1.9,12,1,14.8,1,2.8.1,5.4,1.4,7.5-.4,2.3-2,.3-12.3.3-12.3a11,11,0,0,1-4.6,1.1A8.141,8.141,0,0,1,243.5,268.2Z" fill="#331832"></path>
        </g>
        <g id="Group_963" data-name="Group 963">
          <path id="Path_921" data-name="Path 921" d="M218.4,125.8s1.3,15,7.3,58.3c4.3,31.3,7.1,61.5,9.7,76.6a11.685,11.685,0,0,0,10.7,9.8l2.9.2a9.921,9.921,0,0,0,10.4-9.418,9.462,9.462,0,0,0,0-.982l-4.5-102.1-.9-33.6Z" fill="#6da49a"></path>
        </g>
        <g id="Group_964" data-name="Group 964">
          <path id="Path_922" data-name="Path 922" d="M275.5,269.1s-.3,5-3.7,6.3-13.2,2.3-9.7,5.6c2,1.9,12,1,14.8,1,2.8.1,5.4,1.4,7.5-.4,2.3-2,.3-12.3.3-12.3a11,11,0,0,1-4.6,1.1A9.243,9.243,0,0,1,275.5,269.1Z" fill="#331832"></path>
        </g>
        <g id="Group_965" data-name="Group 965">
          <path id="Path_923" data-name="Path 923" d="M250.4,117.7s-1.3,22.5,4.7,65.9c4.3,31.3,9.6,62.9,12.2,78a11.685,11.685,0,0,0,10.7,9.8l2.9.2a9.921,9.921,0,0,0,10.4-9.418,9.461,9.461,0,0,0,0-.982l-4.5-102.1-.9-33.6Z" fill="#6da49a"></path>
        </g>
        <path id="Path_924" data-name="Path 924" d="M252.2,167.1a17.577,17.577,0,0,0-1.7-3.7l-.3.3a12.213,12.213,0,0,1,1.6,3.5c1.8,6.6,4.3,25,4.3,25.2l.4-.1C256.5,192.2,254.1,173.8,252.2,167.1Z" fill="#331832"></path>
        <g id="Group_966" data-name="Group 966">
          <path id="Path_925" data-name="Path 925" d="M76,268.2s.3,5,3.7,6.3,13.2,2.3,9.7,5.6c-2,1.9-12,1-14.8,1-2.8.1-5.4,1.4-7.5-.4-2.3-2-.3-12.3-.3-12.3a11.007,11.007,0,0,0,4.6,1.1A8.583,8.583,0,0,0,76,268.2Z" fill="#331832"></path>
        </g>
        <g id="Group_967" data-name="Group 967">
          <path id="Path_926" data-name="Path 926" d="M103,122.6s.9,16.3-5.2,59.7c-4.3,31.3-11.2,63.3-13.8,78.4a11.683,11.683,0,0,1-10.7,9.8l-2.9.2A9.922,9.922,0,0,1,60,261.286c-.016-.327-.016-.655,0-.982l4.5-102.1.9-33.6Z" fill="#436e8e"></path>
        </g>
        <g id="Group_968-2" data-name="Group 968-2">
          <path id="Path_927" data-name="Path 927" d="M44,269.1s.3,5,3.7,6.3,13.2,2.3,9.7,5.6c-2,1.9-12,1-14.8,1-2.8.1-5.4,1.4-7.5-.4-2.3-2-.3-12.3-.3-12.3a11.007,11.007,0,0,0,4.6,1.1A9.237,9.237,0,0,0,44,269.1Z" fill="#331832"></path>
        </g>
        <g id="Group_969" data-name="Group 969">
          <path id="Path_928" data-name="Path 928" d="M69.1,117.7s1.3,22.5-4.7,65.9c-4.3,31.3-9.6,62.9-12.2,78a11.683,11.683,0,0,1-10.7,9.8l-2.9.2a9.922,9.922,0,0,1-10.4-9.418c-.016-.327-.016-.655,0-.982l4.5-102.1.9-33.6Z" fill="#436e8e"></path>
        </g>
        <g id="Group_970" data-name="Group 970">
          <path id="Path_929" data-name="Path 929" d="M100.6,140.8s-22.2-5.9-67.5,4.2l-.2,6.6,66.9.6Z" fill="#764678"></path>
        </g>
        <g id="Group_976" data-name="Group 976">
          <g id="Group_971" data-name="Group 971">
            <path id="Path_930" data-name="Path 930" d="M10.7,155.1h0a2.508,2.508,0,0,0,.1,3.5l8.3,7.7c1,.9,5.4,3.7,6.4,2.7h0c.9-1-1.7-4.7-2.5-5.8-1.9-2.4-4.8-8-6.8-10.4C15.2,151.9,11.6,154.1,10.7,155.1Z" fill="#ffb27d"></path>
          </g>
          <g id="Group_972" data-name="Group 972">
            <path id="Path_931" data-name="Path 931" d="M2.1,154.4A47.214,47.214,0,0,0,0,167.9c-.1,2.5,16.3,3.9,17.2,1.3s-1.3-11.6-1.3-11.6Z" fill="#ffb27d"></path>
          </g>
          <g id="Group_975" data-name="Group 975">
            <g id="Group_974" data-name="Group 974">
              <g id="Group_973" data-name="Group 973">
                <path id="Path_932" data-name="Path 932" d="M13.9,161.2s4.3-2.4,5.4,2.7c1.7,8.2-1.7,27.3-4.7,6.2-.1-.4,1,12.8-1.9,11.9-2.9-1-3.2-12.8-3.2-12.8s0,12.6-2.4,10.8-3.4-10-3.4-10,1,10.6-2,8.8C-.4,177.6.1,168.9.2,165.9c0-2.9,1.9-3.8,4.6-3.5,0,0,2.9-1.4,4.6-.8.7.2,1.4-.4,1.9-.5A16.363,16.363,0,0,1,13.9,161.2Z" fill="#ffb27d"></path>
              </g>
            </g>
          </g>
        </g>
        <g id="Group_1006" data-name="Group 1006">
          <g id="Group_978" data-name="Group 978">
            <g id="Group_977" data-name="Group 977">
              <path id="Path_933" data-name="Path 933" d="M168,110.7c-16.5-8.5-39.5-22.3-55.2-40-3.6-4.1-5-5.7-6.7-8.5-1.4-2.2-6.8-1.2-10.5,2.2-3.5,3.2-5.5,9.5-4.9,10.9,1,2.3,3.5,5.3,7.5,9.9,13.8,16.2,36,31.3,64.2,44.6Z" fill="#ffb27d"></path>
            </g>
          </g>
          <g id="Group_979" data-name="Group 979">
            <path id="Path_934" data-name="Path 934" d="M106.7,122.8s-.1,1.8-.4,5.4-.9,9-1.9,16.1c-.1.5-.1,1-.2,1.5-.1.9-.3,1.8-.4,2.7h0v.2c-.5,3.5-4.4,23.7-5.2,27.9L32.4,163.5l-.5-9.7a15.138,15.138,0,0,1,.2-3.7l.6-4.1.4-3.1.1-.9,2-17,38-4.8s-.1,2.3-.5,6.7Z" fill="#436e8e"></path>
          </g>
          <g id="Group_980" data-name="Group 980">
            <path id="Path_935" data-name="Path 935" d="M30.2,143.3c-.1,2.9,17,5.2,38.4,6s38.6-.9,38.7-3.8-16.9-5.7-38.3-6.6C47.7,138.2,30.3,140.5,30.2,143.3Z" fill="#2f1a31"></path>
          </g>
          <g id="Group_981" data-name="Group 981">
            <path id="Path_936" data-name="Path 936" d="M41,63s4.8-14.7,32.7-12.9c40.1,2.6,33.8,39.2,33.6,95.5,0,0-39.1-8.4-77.1-3C30.2,142.6,30.7,85.2,41,63Z" fill="#e28569"></path>
          </g>
          <g id="Group_982" data-name="Group 982">
            <path id="Path_937" data-name="Path 937" d="M30.9,60.1,48.4,71.4s39.5,6.4,50.2,5.4,14.1-8.6,14.1-8.6A57.962,57.962,0,0,0,83.4,51.4a48.366,48.366,0,0,0-5.5-1,63.021,63.021,0,0,0-9.7-.5C43.8,50.9,30.9,60.1,30.9,60.1Z" fill="#e28569"></path>
          </g>
          <g id="Group_983" data-name="Group 983">
            <path id="Path_938" data-name="Path 938" d="M70.1,46.4l2.6-6.6.7-1.9,4.4-11.4-.3,11.6L77.3,45l-.1,2.2c0,1.5.8,1.9,1.9,3.2.4.6,3.1,3.9-.3,5.1C74.6,57,67.2,53.8,64.6,50,64.6,50.1,69.3,48.5,70.1,46.4Z" fill="#ffb27d"></path>
          </g>
          <g id="Group_984" data-name="Group 984">
            <path id="Path_939" data-name="Path 939" d="M103.8,147.6s-22.6-8.4-71.1-2.5l-.9,6.9,70,7.4Z" fill="#436e8e"></path>
          </g>
          <g id="Group_985" data-name="Group 985">
            <path id="Path_940" data-name="Path 940" d="M30.5,60.5c-2,2.4.9,8,6.3,12.6,5.4,4.5,11.4,6.3,13.4,3.9s-.9-8-6.3-12.6S32.5,58.1,30.5,60.5Z" fill="#2f1a31"></path>
          </g>
          <g id="Group_987" data-name="Group 987">
            <g id="Group_986" data-name="Group 986">
              <path id="Path_941" data-name="Path 941" d="M48.8,77.1l-.6.9a85.091,85.091,0,0,0-5.7,10.2,188.524,188.524,0,0,0-11,27.2,355.014,355.014,0,0,0-11.2,45.3L.5,161.8v-1.1C5,125.3,14.2,96.3,24.7,76.4c.9-1.7,1.7-3.3,2.5-4.7,1.4-2.5,2.5-4.5,3.5-6,.5-.7,1-1.3,1.4-1.8s1.7-.8,3.4-.8a16.644,16.644,0,0,1,5.1.9,11.978,11.978,0,0,1,3.2,1.6,14.038,14.038,0,0,1,4.7,5.9l.3.9A4.9,4.9,0,0,1,48.8,77.1Z" fill="#ffb27d"></path>
            </g>
          </g>
          <g id="Group_1004" data-name="Group 1004">
            <g id="Group_988" data-name="Group 988">
              <path id="Path_942" data-name="Path 942" d="M87.4,22.8a16.36,16.36,0,0,1-.4,6.3c-1,3.5-4-5.4-4-5.4Z" fill="#56335b"></path>
            </g>
            <g id="Group_989" data-name="Group 989">
              <path id="Path_943" data-name="Path 943" d="M87.3,30.1c-.4-6.9-5.4-12.2-11.1-11.8-5.7.3-10,6.2-9.6,13.1S72,43.6,77.7,43.2C83.5,42.9,87.7,37,87.3,30.1Z" fill="#ffb27d"></path>
            </g>
            <g id="Group_990" data-name="Group 990">
              <path id="Path_944" data-name="Path 944" d="M66.7,27.8l5-.2a3.651,3.651,0,0,0,2.8-1.4c1.1-1.5,2.4-2.3,7.1-1.8,5.9.6,10-2.6,10.9-5.6.9-3.1-2-5.4-5.1-4.2-3.1,1.3-1.5-2.3-4.4-2.9-5.3-1.1-6.6,2.9-10.9,2.5-5.7-.6-16.2,3-12.1,13.4Z" fill="#2f1a31"></path>
            </g>
            <g id="Group_992" data-name="Group 992">
              <g id="Group_991" data-name="Group 991">
                <path id="Path_945" data-name="Path 945" d="M77.6,30.3c.1,0,.1-.1.1-.2a.214.214,0,0,0-.2-.2A2.265,2.265,0,0,0,75,31.1c-.1.1,0,.2.1.3s.2,0,.3-.1a3.956,3.956,0,0,1,2.1-1Z" fill="#060633"></path>
              </g>
            </g>
            <g id="Group_993" data-name="Group 993">
              <path id="Path_946" data-name="Path 946" d="M76.5,32.9a.942.942,0,0,0,.8.8.779.779,0,0,0,.508-.978L77.8,32.7a.94.94,0,0,0-.8-.8.779.779,0,0,0-.507.978Z" fill="#060633"></path>
            </g>
            <g id="Group_995" data-name="Group 995">
              <g id="Group_994" data-name="Group 994">
                <path id="Path_947" data-name="Path 947" d="M85.4,30.2a.1.1,0,0,0,.1-.1.366.366,0,0,0-.1-.3,1.456,1.456,0,0,0-2.058.054L83.3,29.9a.188.188,0,0,0-.036.263.181.181,0,0,0,.036.037c.1.1.1.1.2,0a2.241,2.241,0,0,1,1.8-.1C85.3,30.2,85.3,30.2,85.4,30.2Z" fill="#060633"></path>
              </g>
            </g>
            <g id="Group_996" data-name="Group 996">
              <path id="Path_948" data-name="Path 948" d="M83.3,32.2a.78.78,0,0,0,.478.993l.022.007c.4.1.7-.3.8-.8a.778.778,0,0,0-.477-.993L84.1,31.4A.942.942,0,0,0,83.3,32.2Z" fill="#060633"></path>
            </g>
            <g id="Group_997" data-name="Group 997">
              <path id="Path_949" data-name="Path 949" d="M60,27.7s2.9,7.7,7.8,8.6c0,0-3.6-5.9,5-8.8C72.8,27.4,65.3,25.7,60,27.7Z" fill="#56335b"></path>
            </g>
            <g id="Group_998" data-name="Group 998">
              <path id="Path_950" data-name="Path 950" d="M66.6,32.3a2.05,2.05,0,1,0-.6-3A2.258,2.258,0,0,0,66.6,32.3Z" fill="#ffb27d"></path>
            </g>
            <g id="Group_999" data-name="Group 999">
              <path id="Path_951" data-name="Path 951" d="M72.8,27.4s-1.1,6.2.1,7.5,9.5,2.4,13.6,1.1h0a8.069,8.069,0,0,1-7.3,7.7,13.548,13.548,0,0,1-4-.3h0c-2.7-.7-5.3-2-6.2-4.6-.3-.8,1-5.5,1-5.5s.6-2.8-1-4.3A8.594,8.594,0,0,1,72.8,27.4Z" fill="#56335b"></path>
            </g>
            <g id="Group_1000" data-name="Group 1000">
              <path id="Path_952" data-name="Path 952" d="M84.3,38.1a23.946,23.946,0,0,1-6.8.1,3.273,3.273,0,0,0,3.568,2.949A3.319,3.319,0,0,0,81.4,41.1C83.5,40.8,84.3,38.1,84.3,38.1Z" fill="#fff"></path>
            </g>
            <g id="Group_1001" data-name="Group 1001">
              <path id="Path_953" data-name="Path 953" d="M86.9,14.1a1.69,1.69,0,0,1-1.7-1.5h.3s0,1.1,1.4,1.2Z" fill="#2f1a31"></path>
            </g>
            <g id="Group_1002" data-name="Group 1002">
              <path id="Path_954" data-name="Path 954" d="M83.4,22.9v-.1c.1,0,6.5-1.4,7-4.6a2.624,2.624,0,0,0-.3-1.9c-.6-.6-1.7-.4-2.7-.2a.9.9,0,0,0-.5.1v-.1a1.088,1.088,0,0,0,.5-.1c1-.2,2.2-.4,2.9.3a2.417,2.417,0,0,1,.4,2c-.2,1.4-1.5,2.6-3.7,3.6C85,22.5,83.4,22.9,83.4,22.9Z" fill="#fff"></path>
            </g>
            <g id="Group_1003" data-name="Group 1003">
              <path id="Path_955" data-name="Path 955" d="M72.4,15.5a14.891,14.891,0,0,1-2.8-.3v-.1a11.093,11.093,0,0,0,6.9-.5,8.669,8.669,0,0,0,2.3-1.5l.1.1C79,13.2,76.7,15.5,72.4,15.5Z" fill="#fff"></path>
            </g>
          </g>
          <g id="Group_1005" data-name="Group 1005">
            <path id="Path_956" data-name="Path 956" d="M16.5,117.7a.749.749,0,0,1-.5-.1c-1.7-.4-2.7-2.7-2.1-5.2h0c.6-2.4,2.5-4.1,4.2-3.7s2.7,2.7,2.1,5.2C19.7,116.2,18.1,117.7,16.5,117.7Zm-1.8-5c-.5,1.9.2,3.8,1.5,4.1s2.7-1.1,3.2-3-.2-3.8-1.5-4.1C16.7,109.4,15.2,110.8,14.7,112.7Z" fill="#e08b65"></path>
          </g>
        </g>
        <g id="Group_1100" data-name="Group 1100">
          <g id="Group_1008" data-name="Group 1008">
            <g id="Group_1007" data-name="Group 1007">
              <path id="Path_957" data-name="Path 957" d="M189.7,117.1a16.885,16.885,0,0,0-1.4-1.1c4.3-1.3,4.1-3.4-2.9-4.6-3.4-.6-9.5-2.8-13.9-2.5a31.769,31.769,0,0,0-5.4.8c-1.7-.2-12.4,15.8-12.1,16,9.9,7.2,26.3,11.4,29.1,10.4s1.2-3.4,3.3-4.5c2.3-1.2.5-3.7,2.2-4.8,1.6-1.1,1.2-2.8.8-4.7C189,120.4,191.8,119.2,189.7,117.1Z" fill="#ffb27d"></path>
            </g>
          </g>
          <g id="Group_1010" data-name="Group 1010">
            <g id="Group_1009" data-name="Group 1009">
              <path id="Path_958" data-name="Path 958" d="M259,155.2l-2.8-.2-15.8-1h0l-10.5-.7L225,153l-3.4-.2h0c-.1-.8-.2-1.7-.3-2.5,0-.4-.1-.7-.1-1.1-.1-.9-.2-1.8-.3-2.6s-.1-1.6-.2-2.4c0-.5-.1-1.1-.1-1.6h0a24.638,24.638,0,0,1-.2-2.7c0-.5-.1-1-.1-1.5-.3-4.2-.5-7.8-.6-10.7V127c-.3-6.5-.2-9.7-.2-9.7l13.1,2.5,4.4.8.3.1h.2l.3.1,13.8,2.7,2.3.4,3.6.7.6,11.9.1,2.1.1,2.1.3,6.3.3,6.5Z" fill="#6da49a"></path>
            </g>
          </g>
          <g id="Group_1012" data-name="Group 1012">
            <g id="Group_1011" data-name="Group 1011">
              <path id="Path_959" data-name="Path 959" d="M284.2,140.2l-2.5-1.5h0l-.2-16h0l-25.8-2.8-4.6-.5s.1,1.3.3,4c.1.9.2,2,.3,3.2.3,2.6.7,5.8,1.3,9.7l.3,2.1c.1.6.2,1.3.3,2,.3,2,.7,4.1,1.1,6.4.4,2.1.8,4.3,1.2,6.7l.3,1.5,2.8.2,21.2,1.3a8.185,8.185,0,0,0,1.7,0Z" fill="#6da49a"></path>
            </g>
          </g>
          <g id="Group_1014" data-name="Group 1014">
            <g id="Group_1013" data-name="Group 1013">
              <path id="Path_960" data-name="Path 960" d="M281.7,140.5l2.5.5,5.4.7c-6,2.9-22.2,5.6-31.1,5.3a22.578,22.578,0,0,1-2.6-.1h-1.2c-1.5-.1-2.9-.1-4.3-.2h-.9a192.976,192.976,0,0,1-20.9-2.1,71.835,71.835,0,0,1-8-1.8h-.1c-2-.7-3.2-1.4-3.4-2.1v-.3a.52.52,0,0,1,.2-.4,5.905,5.905,0,0,1,2.9-1.4,70.965,70.965,0,0,1,11.8-1.7c5.9-.4,13.1-.6,21.1-.4,1,0,2.1,0,3.2.1a10.834,10.834,0,0,1,1.8.1C267.1,136.8,281.7,140.5,281.7,140.5Z" fill="#2f1a31"></path>
            </g>
          </g>
          <g id="Group_1016" data-name="Group 1016">
            <g id="Group_1015" data-name="Group 1015">
              <path id="Path_961" data-name="Path 961" d="M284.9,53.5c-4.7-3.8-10.8-3.9-14.9-5.2h0a20.13,20.13,0,0,0-3.3-.9,40.837,40.837,0,0,0-8.8-1c-1.2,0-2.3,0-3.4.1a19.5,19.5,0,0,0-2.4.2h0c-1.7.2-3.4.4-5,.7h0c-8.9,1.9-14.9,6.5-18.9,13.4a43.026,43.026,0,0,0-3.8,8.7,101.025,101.025,0,0,0-3.8,18.7h0c0,.2-.1.4-.1.6h0c-.2,1.6-.4,3.2-.5,4.9h0v.6c-.9,9.8-1.4,20.9-2,33.1v.5c0,.1-1.4.3-1.4.4-.2,3.4.4,6.1.4,9.5l.1.8c0,.6.2,1,.2,1.6v.1h.2c.4-.1,1.4-.2,2.9-.4,2.5-.3,6.3-.6,11.1-.9,6-.4,13.5-.7,22-.6,1.6,0,3.1.1,4.7.1,7.5.2,24.3,2,31.5,3.1C289.6,141.6,306.4,71.3,284.9,53.5Z" fill="#fff"></path>
            </g>
          </g>
          <g id="Group_1018" data-name="Group 1018">
            <g id="Group_1017" data-name="Group 1017">
              <path id="Path_962" data-name="Path 962" d="M280.9,69.8c-3.2.3-14.6,1.2-26,1.8h-1.8c-2.6.1-5.1.2-7.6.3h0c-4,.1-7.6.1-10.5,0a37.671,37.671,0,0,1-4.2-.4,20.052,20.052,0,0,1-6.4-2.1c-5.6-3-7-7.5-6.9-7.6,4.1-6.5,12.3-11.7,29.9-14.7.2,0,.4-.1.6-.1,1.4-.2,2.8-.4,4.3-.5.5,0,.9-.1,1.4-.1h.8a20.454,20.454,0,0,1,3.5,0h0a48.7,48.7,0,0,1,5.4.3c1.1.1,2.2.2,3.2.3h0c1.3.2,2.6.4,3.8.6a46.672,46.672,0,0,1,11.3,4.1l-1,2.3v2.8Z" fill="#fff"></path>
            </g>
          </g>
          <g id="Group_1020" data-name="Group 1020">
            <g id="Group_1019" data-name="Group 1019">
              <path id="Path_963" data-name="Path 963" d="M281.9,152.6l-23,.8-2.9.1-15.6.6h0l-10.5-.7-4.6-.3H225l-3-.2a1.984,1.984,0,0,1,1.1-1.1l-1.9-2.5-.3-2.6-.2-2.3-.2-1.6h.1a63.86,63.86,0,0,1,10.1-1.7c1.7-.2,3.6-.3,5.8-.5h0a145.661,145.661,0,0,1,16.4-.1h.8c1.5.1,3,.1,4.5.2,6.9.4,19.4.8,28.2,2.2l-4.6,3.8Z" fill="#6da49a"></path>
            </g>
          </g>
          <g id="Group_1022" data-name="Group 1022">
            <g id="Group_1021" data-name="Group 1021">
              <path id="Path_964" data-name="Path 964" d="M236.5,140.5a16.966,16.966,0,0,1,11.2,6s-1.8-6.1,5.3-6.1c1.8,0-1.8-1.2-1.8-1.2Z" fill="#2f1a31"></path>
            </g>
          </g>
          <g id="Group_1024" data-name="Group 1024">
            <g id="Group_1023" data-name="Group 1023">
              <path id="Path_965" data-name="Path 965" d="M245.9,17.8a16.223,16.223,0,0,0,0,6.4c.7,3.6,4.4-5.2,4.4-5.2Z" fill="#56335b"></path>
            </g>
          </g>
          <g id="Group_1026" data-name="Group 1026">
            <g id="Group_1025" data-name="Group 1025">
              <path id="Path_966" data-name="Path 966" d="M267,47c-2.9,3.6-8.2,3.1-12.3,1.3-3.3-1.5-2.8-1.4-2.4-2,1.1-1.3,2-1.6,2.1-3.1l.1-2V41l.1-2.6.2-4.4.5-11.7,3.6,11.8.6,2,2.1,6.9C262.4,45.1,266.9,47,267,47Z" fill="#f7b686"></path>
            </g>
          </g>
          <g id="Group_1028" data-name="Group 1028">
            <g id="Group_1027" data-name="Group 1027">
              <path id="Path_967" data-name="Path 967" d="M260.1,37.9a8.915,8.915,0,0,1-5.6,3.4v-.2l.1-2.6C256.6,38.2,260.1,37.9,260.1,37.9Z" fill="#2f1a31"></path>
            </g>
          </g>
          <g id="Group_1030" data-name="Group 1030">
            <g id="Group_1029" data-name="Group 1029">
              <path id="Path_968" data-name="Path 968" d="M245.5,25.3c.9-6.9,6.3-11.9,12-11.1s9.6,7,8.7,13.9-6.3,11.9-12,11.1S244.6,32.2,245.5,25.3Z" fill="#f7b686"></path>
            </g>
          </g>
          <g id="Group_1033" data-name="Group 1033">
            <g id="Group_1032" data-name="Group 1032">
              <g id="Group_1031" data-name="Group 1031">
                <path id="Path_969" data-name="Path 969" d="M253.8,26.2a.1.1,0,0,1-.1-.1h0a.373.373,0,0,1,.1-.3,2.36,2.36,0,0,1,2.8.6.212.212,0,0,1-.3.3h0a4.285,4.285,0,0,0-2.3-.5Z" fill="#060633"></path>
              </g>
            </g>
          </g>
          <g id="Group_1036" data-name="Group 1036">
            <g id="Group_1035" data-name="Group 1035">
              <g id="Group_1034" data-name="Group 1034">
                <path id="Path_970" data-name="Path 970" d="M248.1,26.1a.1.1,0,0,1-.1-.1h0c-.1-.1,0-.2,0-.3a1.557,1.557,0,0,1,2.2-.1h0a.188.188,0,0,1,.039.262.2.2,0,0,1-.039.038c-.1.1-.1.1-.2.1A3.519,3.519,0,0,0,248.1,26.1Z" fill="#060633"></path>
              </g>
            </g>
          </g>
          <g id="Group_1038" data-name="Group 1038">
            <g id="Group_1037" data-name="Group 1037">
              <path id="Path_971" data-name="Path 971" d="M249.1,31.9a20.4,20.4,0,0,0,6.8.5,3.221,3.221,0,0,1-3.671,2.7,3.163,3.163,0,0,1-.429-.1C249.7,34.7,249.1,31.9,249.1,31.9Z" fill="#fff"></path>
            </g>
          </g>
          <g id="Group_1040" data-name="Group 1040">
            <g id="Group_1039" data-name="Group 1039">
              <path id="Path_972" data-name="Path 972" d="M257.7,48.9s-5-1.5-6.3-.3-.3,6.6,1.9,7.1C255.7,56.1,260,50.2,257.7,48.9Z" fill="#c028b9"></path>
            </g>
          </g>
          <g id="Group_1042" data-name="Group 1042">
            <g id="Group_1041" data-name="Group 1041">
              <path id="Path_973" data-name="Path 973" d="M254.8,47.6s6.5-2.3,7.7-4.6c1.3-2.3,8,3,7.8,4.6-.1,1.6-12.2,10.3-13,9.2C256.6,55.7,253.2,49.1,254.8,47.6Z" fill="#f0f0f0"></path>
            </g>
          </g>
          <g id="Group_1044" data-name="Group 1044">
            <g id="Group_1043" data-name="Group 1043">
              <path id="Path_974" data-name="Path 974" d="M254.8,47.6s-1-2.4-.5-3.7c0,0,.3-1.1-.7-1.1-1,.1-6.3,3.8-6.8,5-.5,1.1-.6,6.5,1.2,6.9,1.7.4,5.9-5.4,6.4-5.9A1.594,1.594,0,0,0,254.8,47.6Z" fill="#f0f0f0"></path>
            </g>
          </g>
          <g id="Group_1046" data-name="Group 1046">
            <g id="Group_1045" data-name="Group 1045">
              <path id="Path_975" data-name="Path 975" d="M252,53.5s-17.1,44.2-15.9,62.7c0,0,1.2,10.8,8.9,16.6,0,0,10.3-6.8,11.7-16.6,1.1-8.1-3.9-55.1-1-61.6Z" fill="#c028b9"></path>
            </g>
          </g>
          <g id="Group_1048" data-name="Group 1048">
            <g id="Group_1047" data-name="Group 1047">
              <path id="Path_976" data-name="Path 976" d="M253.4,55.8h0c-1.5,0-2.4-3-2.4-3.1l.2-.1s.8,2.9,2.1,2.9h0a4.171,4.171,0,0,0,2.6-1.3l.2.2A3.737,3.737,0,0,1,253.4,55.8Z" fill="#2f1a31"></path>
            </g>
          </g>
          <g id="Group_1050" data-name="Group 1050">
            <g id="Group_1049" data-name="Group 1049">
              <path id="Path_977" data-name="Path 977" d="M260.3,18.9a10.115,10.115,0,0,1-8,4.2s-.7-.2.3-.8c.9-.6,2.3-2.3,1.9-2.8s-4.4,5-8.7,4.8c0,0-5.9-.2-2.5-3.7,2.1-2.2,0-10.8,14.1-11.6,2.1-.1,6.5.2,8.2,3.3,0,0,5.6-.2,6.7,6.6,1.7,10.2-7.6,13.9-7.6,13.9s2.3-8.7-.2-7.5c-3.3,1.4-5-.4-3.6-2.3S262.7,17.4,260.3,18.9Z" fill="#2f1a31"></path>
            </g>
          </g>
          <g id="Group_1052" data-name="Group 1052">
            <g id="Group_1051" data-name="Group 1051">
              <path id="Path_978" data-name="Path 978" d="M266.2,28.9a2.079,2.079,0,0,1-2.915-.381c-.029-.039-.058-.079-.085-.119a2.163,2.163,0,0,1,.8-2.9,2.036,2.036,0,1,1,2.2,3.4Z" fill="#f7b686"></path>
            </g>
          </g>
          <g id="Group_1054" data-name="Group 1054">
            <g id="Group_1053" data-name="Group 1053">
              <path id="Path_979" data-name="Path 979" d="M270,12.7c-.1,0-.1,0-.2-.1a4.146,4.146,0,0,0-3.9-.9c-.1,0-.3,0-.3-.2,0-.1,0-.3.2-.3a4.843,4.843,0,0,1,4.4,1.1.188.188,0,0,1,.039.262.2.2,0,0,1-.039.038C270.2,12.7,270.1,12.7,270,12.7Z" fill="#2f1a31"></path>
            </g>
          </g>
          <g id="Group_1056" data-name="Group 1056">
            <g id="Group_1055" data-name="Group 1055">
              <path id="Path_980" data-name="Path 980" d="M265.1,10.4h0c-.2,0-.3-.1-.2-.3,0-.1.1-1.2-1.7-1.9a.224.224,0,0,1,.177-.412l.023.012c2.2.8,2,2.3,2,2.4C265.3,10.3,265.2,10.4,265.1,10.4Z" fill="#2f1a31"></path>
            </g>
          </g>
          <g id="Group_1058" data-name="Group 1058">
            <g id="Group_1057" data-name="Group 1057">
              <path id="Path_981" data-name="Path 981" d="M220.7,89h0c-.2,0-.3-.2-.2-.3a74.2,74.2,0,0,1,4.8-13.8c.1-.1.2-.2.3-.1s.2.2.1.3A68.713,68.713,0,0,0,221,88.8C220.9,88.9,220.8,89,220.7,89Z" fill="#2f1a31"></path>
            </g>
          </g>
          <g id="Group_1060" data-name="Group 1060">
            <g id="Group_1059" data-name="Group 1059">
              <path id="Path_982" data-name="Path 982" d="M217.1,140.6a.216.216,0,0,1-.2-.2s-.2-2.6-.4-6.7a.216.216,0,0,1,.2-.2h0a.214.214,0,0,1,.2.2,50.693,50.693,0,0,0,.4,6.7C217.4,140.4,217.3,140.6,217.1,140.6Z" fill="#2f1a31"></path>
            </g>
          </g>
          <g id="Group_1062" data-name="Group 1062">
            <g id="Group_1061" data-name="Group 1061">
              <path id="Path_983" data-name="Path 983" d="M248.5,28.6c.1.4.4.8.7.7.3,0,.5-.4.5-.9-.1-.4-.4-.8-.7-.7C248.7,27.7,248.5,28.1,248.5,28.6Z" fill="#060633"></path>
            </g>
          </g>
          <g id="Group_1064" data-name="Group 1064">
            <g id="Group_1063" data-name="Group 1063">
              <path id="Path_984" data-name="Path 984" d="M253.9,28.7c.1.4.4.8.7.7.3,0,.5-.4.5-.9-.1-.4-.4-.8-.7-.7A.939.939,0,0,0,253.9,28.7Z" fill="#060633"></path>
            </g>
          </g>
          <g id="Group_1067" data-name="Group 1067">
            <g id="Group_1066" data-name="Group 1066">
              <g id="Group_1065" data-name="Group 1065">
                <path id="Path_985" data-name="Path 985" d="M281.1,89.5a4.588,4.588,0,0,1-.7.7c-1.8,1.9-3.7,3.9-5.8,5.8h0a136.167,136.167,0,0,1-17.9,13.8c-3.2,2.1-6.6,4.2-10,6.1h0c-3.1,1.7-6.3,3.3-9.4,4.8-.1,0-.1.1-.2.1-1.5.7-3,1.4-4.5,2-.6.2-1.1.5-1.7.7h0a110.41,110.41,0,0,1-11.3,4.1c-.6.2-1.1.3-1.7.5-2.4.7-4.8,1.3-7.1,1.8-1.1.2-2.2.5-3.3.7l-1.8.3h0l-.2-.4-1.1-2.6-.1-.2v-.1l-1.3-3.2h0l-2.3-5.5h0l-.4-1.1h0l-3.5-8.3h0l-.1-.2-.3-.2-1-2.3c.4-.2.8-.3,1.2-.5h0c3.1-1.4,6.6-3.1,10.5-5h.1c1-.5,2-1.1,3.1-1.6,3.1-1.6,6.4-3.4,9.7-5.4,3.6-2.1,7.3-4.3,11-6.6l5.1-3.3c2.4-1.5,4.7-3.1,7-4.6h0c1.8-1.2,3.5-2.4,5.3-3.6,2.2-1.6,4.4-3.1,6.5-4.6l.1-.1c10-7.2,17.3-13,18.2-14.1,1.1-1.3,4.2-1.4,7.6-.8l.1,13.1Z" fill="#fff"></path>
              </g>
            </g>
          </g>
          <g id="Group_1069" data-name="Group 1069">
            <g id="Group_1068" data-name="Group 1068">
              <path id="Path_986" data-name="Path 986" d="M205.7,131c-3.4,1.3-8.3-3.2-10.9-10s-2-13.3,1.4-14.6,8.3,3.2,10.9,10S209.1,129.7,205.7,131Z" fill="#2f1a31"></path>
            </g>
          </g>
          <g id="Group_1071" data-name="Group 1071">
            <g id="Group_1070" data-name="Group 1070">
              <path id="Path_987" data-name="Path 987" d="M203.1,128.6c-2.6,1-6.4-2.5-8.4-7.7s-1.5-10.3,1.1-11.2c2.6-1,6.4,2.5,8.4,7.7S205.7,127.7,203.1,128.6Z" fill="#f7b686"></path>
            </g>
          </g>
          <g id="Group_1073" data-name="Group 1073">
            <g id="Group_1072" data-name="Group 1072">
              <path id="Path_988" data-name="Path 988" d="M204,127.7c0-.1.1-.1,0,0l-.6-1.4A26.906,26.906,0,0,0,200,118a2.731,2.731,0,0,0,1.3-1.3l.4-.8c.7-1.4-1.9-5.3-3.3-6a76.642,76.642,0,0,1-12.1-4.6c-9.9-5.1-14.4-.6-8.2,2.9.4.2,3.8,2.1,5.9,3.3a.83.83,0,0,1-.2,1.5c-7.4,2.2-31.5,9.9-29.3,15.6,1.3,3.4,17.1-4.5,17-4.1-.1.5-14,5.1-10.2,8.6,2.5,2.4,15.4-2.9,15.2-2.4s-11.1,4.1-10.1,6.2c1.6,3.6,11.8-1.2,11.8-1.1.1.1-7,4.1-5,5.8,2,1.6,26.9-5.8,31.1-13.8Z" fill="#f7b686"></path>
            </g>
          </g>
          <g id="Group_1075" data-name="Group 1075">
            <g id="Group_1074" data-name="Group 1074">
              <path id="Path_989" data-name="Path 989" d="M181.7,110.6h0c-1.6-.9-3.6-2-3.8-2.1-2.3-1.3-3.4-3-2.7-4.3,1-1.8,5.2-2.1,11.2,1a85.256,85.256,0,0,0,12,4.6c.1,0,.2.1.1.2,0,.1-.1.2-.2.1a80.136,80.136,0,0,1-12.1-4.6c-6.1-3.1-9.9-2.6-10.6-1.1-.6,1.1.4,2.5,2.6,3.7.2.1,2.3,1.3,3.7,2.1a.366.366,0,0,1,.1.3C181.9,110.5,181.8,110.6,181.7,110.6Z" fill="#d89364"></path>
            </g>
          </g>
          <g id="Group_1077" data-name="Group 1077">
            <g id="Group_1076" data-name="Group 1076">
              <path id="Path_990" data-name="Path 990" d="M204.3,127.7h0c-.1-.1-.2,0-.3,0h0c-.1.2-.2.3-.3.5a12.379,12.379,0,0,1-1.9,2.2c-.2.2-.4.3-.5.5-.1,0-.1.1-.2.1s-.1.1-.2.1a22.343,22.343,0,0,1-4.4,2.9.1.1,0,0,0-.1.1h-.1c-.1,0-.1.1-.2.1a39.024,39.024,0,0,1-3.5,1.8c-.6.3-1.1.5-1.7.8a.1.1,0,0,0-.1.1h0l-.2.1c-.1,0-.1,0-.2.1-1.6.7-3.2,1.3-4.9,1.9h-.2c-.1,0-.1,0-.2.1a41.247,41.247,0,0,1-4.3,1.3c-.1,0-.1,0-.2.1-.1,0-.1,0-.2.1-1,.3-1.9.5-2.8.7-3.6.8-4.4.4-4.5.3a.87.87,0,0,1-.3-.6c.1-1.4,3.6-3.7,4.7-4.5.6-.4.6-.4.6-.5v-.1c-.1-.1-.1-.1-.5,0-.1,0-.2.1-.3.1-4.4,1.8-10,3.4-11,1a.3.3,0,0,1,0-.4c.3-.8,2-1.8,3.9-2.7a30.854,30.854,0,0,1,3.9-1.7,15.025,15.025,0,0,0,2.3-1.1v-.2c-.1-.1-.3-.1-2.4.5-1.6.5-3.9,1.2-6.1,1.8-2.9.7-5.8,1-6.7.1a1.642,1.642,0,0,1-.6-1.4,2.432,2.432,0,0,1,.9-1.4c1.8-1.8,5.9-3.6,8.1-4.6,1.7-.7,1.9-.8,1.9-1,0-.1,0-.2-.1-.2-.1-.1-.2-.1-2.6.9a86.5,86.5,0,0,1-9.9,3.6h0a9.787,9.787,0,0,1-2.7.4,3.744,3.744,0,0,1-1.2-.2,1.029,1.029,0,0,1-.6-.5,2.153,2.153,0,0,1,.4-2.1c1.3-2,5.3-4.9,15.5-8.8.1,0,.1-.1.1-.2s-.1-.1-.2-.1c-8.8,3.4-14,6.3-15.6,8.9a2.6,2.6,0,0,0-.4,2.5,1.551,1.551,0,0,0,.8.8c.9.4,2.6.2,4.5-.3a62.172,62.172,0,0,0,6.5-2.2,17.455,17.455,0,0,0-4.7,3.1,3.025,3.025,0,0,0-.9,1.5,1.767,1.767,0,0,0,.7,1.7c1.2,1.1,4.4.7,7.7-.1,2-.5,4.1-1.1,5.6-1.6.1,0,.2-.1.4-.1-.2.1-.3.1-.5.2-1.3.5-2.9,1.2-4.3,1.9-1.8.9-3.4,1.9-3.7,2.8a.846.846,0,0,0,0,.7c.9,2.1,4.5,1.9,10.5-.4-2,1.4-4,3-4,4.2a.976.976,0,0,0,.4.9,2.065,2.065,0,0,0,1.3.3,16.318,16.318,0,0,0,3.6-.5c.9-.2,1.9-.4,2.9-.7.1,0,.1,0,.2-.1.1,0,.1,0,.2-.1,1.3-.4,2.8-.8,4.3-1.4.1,0,.1,0,.2-.1h0c.1,0,.1,0,.2-.1,1.6-.6,3.2-1.2,4.8-1.9.1,0,.1-.1.2-.1l.2-.1h.1a46.76,46.76,0,0,0,5.5-2.7.1.1,0,0,0,.1-.1h0a37.255,37.255,0,0,0,4.4-2.9c.1,0,.1-.1.2-.1s.1-.1.2-.1c.3-.2.5-.5.8-.7a9.9,9.9,0,0,0,2.1-2.7h0A1.411,1.411,0,0,1,204.3,127.7Z" fill="#d89364"></path>
            </g>
          </g>
          <g id="Group_1079" data-name="Group 1079">
            <g id="Group_1078" data-name="Group 1078">
              <path id="Path_991" data-name="Path 991" d="M205.4,131a.216.216,0,0,1-.2-.2c0-.1.1-.3.2-.3a150.963,150.963,0,0,0,27-8.1A146.752,146.752,0,0,0,256.8,110a107.208,107.208,0,0,0,23.4-19.9.212.212,0,1,1,.3.3h0a107.781,107.781,0,0,1-23.5,20,144.062,144.062,0,0,1-24.5,12.4,144.175,144.175,0,0,1-27.1,8.2Z" fill="#2f1a31"></path>
            </g>
          </g>
          <g id="Group_1081" data-name="Group 1081">
            <g id="Group_1080" data-name="Group 1080">
              <path id="Path_992" data-name="Path 992" d="M207.2,101.2c-.1,0-.2,0-.2-.1a.194.194,0,0,1,.038-.269.19.19,0,0,1,.062-.031c.4-.2,41.9-21.2,52.9-36.1a.366.366,0,0,1,.3-.1c.1,0,.1.2.1.3-5.8,7.8-19.9,17.3-30.7,23.8-11.7,7.1-22.2,12.4-22.3,12.4Z" fill="#2f1a31"></path>
            </g>
          </g>
          <g id="Group_1083" data-name="Group 1083">
            <g id="Group_1082" data-name="Group 1082">
              <path id="Path_993" data-name="Path 993" d="M186.3,140.2c-1.7-2-4.4-8.9-1.8-10.2,2.6-1.2,7,6.8,6.8,8.2C191.2,139.7,187.4,141.4,186.3,140.2Z" fill="#ffb27d"></path>
            </g>
          </g>
          <g id="Group_1085" data-name="Group 1085">
            <g id="Group_1084" data-name="Group 1084">
              <path id="Path_994" data-name="Path 994" d="M181.4,141.4c-1.4-1.7-3.7-7.6-1.5-8.6,2.2-1.1,5.9,5.7,5.8,7C185.6,141,182.3,142.4,181.4,141.4Z" fill="#ffb27d"></path>
            </g>
          </g>
          <g id="Group_1087" data-name="Group 1087">
            <g id="Group_1086" data-name="Group 1086">
              <path id="Path_995" data-name="Path 995" d="M191.8,138.8c-1.8-2.2-4.7-10.2-1.9-11.6s7.4,7.7,7.2,9.4C197,138.3,192.9,140.2,191.8,138.8Z" fill="#ffb27d"></path>
            </g>
          </g>
          <g id="Group_1089" data-name="Group 1089">
            <g id="Group_1088" data-name="Group 1088">
              <path id="Path_996" data-name="Path 996" d="M196.5,134.2c-1.6-2.1-4.3-9.3-1.7-10.6s6.8,7.1,6.7,8.6C201.2,133.7,197.5,135.5,196.5,134.2Z" fill="#ffb27d"></path>
            </g>
          </g>
          <g id="Group_1091" data-name="Group 1091">
            <g id="Group_1090" data-name="Group 1090">
              <path id="Path_997" data-name="Path 997" d="M186.3,140.4c-.1,0-.1,0-.1-.1a15.975,15.975,0,0,1-2.5-5.4c-.7-2.7-.4-4.4.8-5,1.6-.7,3.5,1.5,4.5,2.9.1.1,0,.2,0,.3-.1.1-.2,0-.3,0-1.6-2.2-3-3.2-4-2.7-1.4.7-1,3.2-.6,4.6a15.427,15.427,0,0,0,2.5,5.3.188.188,0,0,1,.039.262.2.2,0,0,1-.039.038C186.4,140.4,186.4,140.4,186.3,140.4Z" fill="#d89364"></path>
            </g>
          </g>
          <g id="Group_1093" data-name="Group 1093">
            <g id="Group_1092" data-name="Group 1092">
              <path id="Path_998" data-name="Path 998" d="M181.4,141.5c-.1,0-.1,0-.1-.1-1.1-1.3-2.9-5.4-2.4-7.6a1.554,1.554,0,0,1,1-1.3c.8-.4,1.9.1,3.1,1.5a.212.212,0,0,1-.3.3c-.7-.8-1.8-1.8-2.6-1.4a1.611,1.611,0,0,0-.8,1.1c-.5,2.1,1.3,6,2.3,7.3a.188.188,0,0,1,.039.262.2.2,0,0,1-.039.038C181.5,141.5,181.5,141.5,181.4,141.5Z" fill="#d89364"></path>
            </g>
          </g>
          <g id="Group_1095" data-name="Group 1095">
            <g id="Group_1094" data-name="Group 1094">
              <path id="Path_999" data-name="Path 999" d="M191.8,139c-.1,0-.1,0-.1-.1a22.877,22.877,0,0,1-2.3-4.7c-.4-1.3-1.1-3.8-.7-5.5a2.455,2.455,0,0,1,1.2-1.7c1-.5,2.3.1,3.7,1.9a.212.212,0,0,1-.3.3c-.9-1.1-2.2-2.3-3.3-1.8a1.932,1.932,0,0,0-1,1.4c-.6,2.8,1.5,8.1,2.9,9.9a.188.188,0,0,1,.039.262.2.2,0,0,1-.039.038Z" fill="#d89364"></path>
            </g>
          </g>
          <g id="Group_1097" data-name="Group 1097">
            <g id="Group_1096" data-name="Group 1096">
              <path id="Path_1000" data-name="Path 1000" d="M196.5,134.4c-.1,0-.1,0-.1-.1a8.487,8.487,0,0,1-1-1.7,18.584,18.584,0,0,1-1.7-5.2c-.3-2.1.1-3.4,1.1-4a1.477,1.477,0,0,1,1.3,0c1.9.7,4.2,4.5,5.1,6.9a7.621,7.621,0,0,1,.5,1.9.2.2,0,0,1-.4,0,4.082,4.082,0,0,0-.5-1.7c-.9-2.3-3.1-6-4.9-6.7a1.7,1.7,0,0,0-1,0c-1.9,1-.6,5.8.8,8.7a8.486,8.486,0,0,0,1,1.7.188.188,0,0,1,.039.262.2.2,0,0,1-.039.038Z" fill="#d89364"></path>
            </g>
          </g>
          <g id="Group_1099" data-name="Group 1099">
            <g id="Group_1098" data-name="Group 1098">
              <path id="Path_1001" data-name="Path 1001" d="M186.5,118.1a122.722,122.722,0,0,1-17.3-1.7.2.2,0,0,1,0-.4c.2,0,21.6,3.6,24.4.3a1.031,1.031,0,0,0,.2-1.2c-.6-2-10.7-4.2-19.3-5.9-2.7-.5-6.9.5-7,.5s-.2,0-.2-.1,0-.2.1-.2c.2,0,4.4-1,7.1-.5,13.4,2.6,19.1,4.3,19.6,6.1a1.563,1.563,0,0,1-.3,1.6C193,117.7,190,118.1,186.5,118.1Z" fill="#d89364"></path>
            </g>
          </g>
        </g>
        <g id="Group_1101" data-name="Group 1101">
          <path id="Path_1002" data-name="Path 1002" d="M63.3,192.4c0-.2,2.5-18.6,4.3-25.2,1.8-6.5,10.3-12.2,10.4-12.3l-.2-.4c-.1.1-8.7,5.8-10.6,12.5-1.9,6.6-4.3,25.1-4.3,25.2Z" fill="#331832"></path>
        </g>
      </g>
    </g>
  </g>
</svg>