<svg xmlns="http://www.w3.org/2000/svg" xmlns:xlink="http://www.w3.org/1999/xlink" width="1007.24" height="1459.096" viewBox="0 0 1007.24 1459.096">
  <defs>
    <clipPath id="clip-path">
      <rect id="Rectangle_1247" data-name="Rectangle 1247" width="1007.24" height="1459.095" fill="none"></rect>
    </clipPath>
  </defs>
  <g id="Duct_cleaning" data-name="Duct cleaning" transform="translate(0 -0.004)">
    <g id="Group_3091" data-name="Group 3091" transform="translate(0 0.004)" clip-path="url(#clip-path)">
      <path id="Path_2348" data-name="Path 2348" d="M285.222,296.86s-16.265,100.356,5.75,133.124,81.252-60.777,81.252-60.777Z" transform="translate(112.574 119.588)" fill="#faa46f"></path>
      <path id="Path_2349" data-name="Path 2349" d="M401.707,177.535S263.92,407.019,288.5,478.057s142.735,8.106,142.735,8.106L460.612,235.9Z" transform="translate(115.043 71.516)" fill="#faa46f"></path>
      <path id="Path_2350" data-name="Path 2350" d="M480.522,945.633s-.661,26.2-18.512,33.6-69.572,14.061-50.245,30.908c11.088,9.667,63.352,3.422,78.106,3.422s28.61,6.387,39.575-3.422c12.063-10.792,0-64.5,0-64.5s-12.732,6.589-24.184,6.293c-16.5-.425-24.739-6.293-24.739-6.293" transform="translate(164.168 380.953)" fill="#29140e"></path>
      <path id="Path_2351" data-name="Path 2351" d="M358.589,507.677c2.539,43.9,12.233,150.368,22.148,209.565,27.429,163.773,59.808,328.805,75.7,407.922,5.683,28.3,29.645,49,58.045,50.127l15.262.609c30.707,1.223,55.63-24.977,53.387-56.126L544.589,584.506l-9.5-176.177S351.4,383.34,358.589,507.677" transform="translate(144.378 163.667)" fill="#426c8c"></path>
      <path id="Path_2352" data-name="Path 2352" d="M601.034,945.633s-.661,26.2-18.512,33.6-69.572,14.061-50.245,30.908c11.088,9.667,63.352,3.422,78.106,3.422s28.61,6.387,39.575-3.422c12.063-10.792,0-64.5,0-64.5s-12.732,6.589-24.184,6.293c-16.5-.425-24.739-6.293-24.739-6.293" transform="translate(212.718 380.953)" fill="#29140e"></path>
      <path id="Path_2353" data-name="Path 2353" d="M470.311,381.934S466.75,500.19,504.745,727.046c27.429,163.774,59.808,328.805,75.7,407.924,5.683,28.3,29.645,48.995,58.045,50.127l15.262.609c30.707,1.223,55.63-24.978,53.387-56.126L668.6,594.31l-9.5-176.175Z" transform="translate(189.434 153.861)" fill="#426c8c"></path>
      <path id="Path_2354" data-name="Path 2354" d="M695,208.082S676,133.3,535.847,132.539C333.73,131.446,363.74,392.333,363.74,589.716c0,0,154.089-41.48,342.653-1.277,0,0,32.494-266.09-11.4-380.357" transform="translate(145.903 53.388)" fill="#df8368"></path>
      <path id="Path_2355" data-name="Path 2355" d="M751.834,197.536l-91.539,50.308s-200.434,18.08-253.641,9.372S349.5,209.345,349.5,209.345s46.019-57.888,142.341-73.437c9.051-1.473,18.436-2.555,28.169-3.185a278.737,278.737,0,0,1,48.689.962c122.081,13.667,183.136,63.85,183.136,63.85" transform="translate(140.799 53.21)" fill="#e08469"></path>
      <path id="Path_2356" data-name="Path 2356" d="M672.83,181.481c7.685,10.962-13.148,39.294-46.533,63.283s-66.679,34.548-74.364,23.588,13.148-39.294,46.533-63.283,66.679-34.55,74.364-23.588" transform="translate(221.709 71.361)" fill="#29140e"></path>
      <path id="Path_2357" data-name="Path 2357" d="M564.922,139.281s-64.287,54.167-78.775,130.657l30.564,10.691s12.934-96.952,69.444-136.152c0,0-16.447-6.485-21.234-5.2" transform="translate(195.849 56.037)" fill="#426c8c"></path>
      <path id="Path_2358" data-name="Path 2358" d="M462.054,135.592s-27.492,56.218-28.673,113.794l-23.038,3.6s8.182-79.6,28.6-112.263c0,0,8.068-7.515,23.107-5.127" transform="translate(165.311 54.43)" fill="#426c8c"></path>
      <path id="Path_2359" data-name="Path 2359" d="M708.279,557.483,593.712,263.755a54.458,54.458,0,0,0-39.521-34.787L472.012,210.7a54.6,54.6,0,0,0-64.957,40.1C385.35,339.39,349.844,509.1,358.951,587c12.348,105.624,349.328-29.515,349.328-29.515" transform="translate(144.018 84.344)" fill="#426c8c"></path>
      <path id="Path_2360" data-name="Path 2360" d="M509.483,249.613c0-7.129-2.88-13.2-13-12.908-7.173.208-12.634,6.4-13.881,13.421-1.445,8.141,6.7,12.394,13.881,12.394s13-4.4,13-12.908" transform="translate(194.355 95.349)" fill="#29140e"></path>
      <path id="Path_2361" data-name="Path 2361" d="M506.795,249.04c0-6.028-2.435-11.164-10.989-10.916-6.067.177-10.684,5.414-11.739,11.349-1.222,6.884,5.67,10.482,11.739,10.482s10.989-3.722,10.989-10.916" transform="translate(194.954 95.922)" fill="#fff"></path>
      <path id="Path_2362" data-name="Path 2362" d="M498.457,245.75a1.907,1.907,0,0,0-2.19-2.176,2.608,2.608,0,0,0-2.34,2.263c-.243,1.372,1.131,2.089,2.34,2.089a2.048,2.048,0,0,0,2.19-2.176" transform="translate(198.972 98.12)" fill="#29140e"></path>
      <path id="Path_2363" data-name="Path 2363" d="M491.562,247.3a1.907,1.907,0,0,0-2.19-2.176,2.6,2.6,0,0,0-2.339,2.263c-.244,1.372,1.129,2.089,2.339,2.089a2.048,2.048,0,0,0,2.19-2.176" transform="translate(196.195 98.745)" fill="#29140e"></path>
      <path id="Path_2364" data-name="Path 2364" d="M439.5,235.893c0-7.128-2.88-13.2-12.995-12.908-7.176.208-12.637,6.4-13.883,13.421-1.445,8.141,6.7,12.394,13.883,12.394s12.995-4.4,12.995-12.908" transform="translate(166.163 89.822)" fill="#29140e"></path>
      <path id="Path_2365" data-name="Path 2365" d="M436.816,235.32c0-6.028-2.435-11.164-10.989-10.916-6.067.177-10.686,5.414-11.739,11.351-1.222,6.884,5.669,10.481,11.739,10.481s10.989-3.722,10.989-10.916" transform="translate(166.762 90.395)" fill="#fff"></path>
      <path id="Path_2366" data-name="Path 2366" d="M428.477,232.03a1.907,1.907,0,0,0-2.19-2.176,2.608,2.608,0,0,0-2.34,2.263c-.243,1.372,1.131,2.089,2.34,2.089a2.048,2.048,0,0,0,2.19-2.176" transform="translate(170.78 92.593)" fill="#29140e"></path>
      <path id="Path_2367" data-name="Path 2367" d="M421.583,233.581a1.907,1.907,0,0,0-2.19-2.176,2.608,2.608,0,0,0-2.34,2.263c-.243,1.372,1.131,2.089,2.34,2.089a2.048,2.048,0,0,0,2.19-2.176" transform="translate(168.003 93.218)" fill="#29140e"></path>
      <path id="Path_2368" data-name="Path 2368" d="M521.21,725.356a1.693,1.693,0,0,1-1.69-1.521c-.091-.839-9.011-85.427-22.794-138.82-13.567-52.634-46.7-69.343-47.039-69.5a1.694,1.694,0,1,1,1.5-3.04c1.428.68,34.865,17.446,48.855,71.7C513.868,637.808,522.821,722.644,522.9,723.5a1.68,1.68,0,0,1-1.519,1.849.877.877,0,0,1-.171.011" transform="translate(180.778 206.38)" fill="#020202"></path>
      <path id="Path_2369" data-name="Path 2369" d="M516.166,150.1l-10.58-33.916-3.078-9.875L484.4,48.254,482.018,106l-1.425,34.663-.45,10.972c-.307,7.448-1.413,13.911-6.975,20.384-2.253,2.622-8.009,15.622,7.754,19.583,21.611,5.43,46.98-3.375,61.473-21.124-.114-.025-22.809-9.42-26.228-20.381" transform="translate(189.452 19.434)" fill="#ffb27d"></path>
      <path id="Path_2370" data-name="Path 2370" d="M506.617,102.665s-10.858,14.577-28.99,16.082l.662-16.082Z" transform="translate(192.417 41.354)" fill="#080435"></path>
      <path id="Path_2371" data-name="Path 2371" d="M447.6,32.714a75.773,75.773,0,0,0,0,31.671C451.292,82,469.332,38.7,469.332,38.7Z" transform="translate(179.659 13.174)" fill="#29140e"></path>
      <path id="Path_2372" data-name="Path 2372" d="M445.785,74.8c4.5-34.067,31.209-58.676,59.652-54.967s47.849,34.332,43.348,68.4-31.211,58.676-59.655,54.967-47.849-34.332-43.346-68.4" transform="translate(179.328 7.837)" fill="#ffb27d"></path>
      <path id="Path_2373" data-name="Path 2373" d="M480.5,62.427a1.044,1.044,0,0,1,.471-1.928,11.426,11.426,0,0,1,12.138,6.863,1.051,1.051,0,0,1-.474,1.4,1.16,1.16,0,0,1-1.411-.47,18.073,18.073,0,0,0-10.077-5.71,1.063,1.063,0,0,1-.647-.159" transform="translate(193.378 24.325)" fill="#080435"></path>
      <path id="Path_2374" data-name="Path 2374" d="M485.508,72.931c-.661,2.407-2.623,3.973-4.383,3.5s-2.649-2.814-1.987-5.221,2.622-3.974,4.381-3.5,2.649,2.816,1.988,5.223" transform="translate(192.938 27.237)" fill="#080435"></path>
      <path id="Path_2375" data-name="Path 2375" d="M452.779,60.7a.766.766,0,0,1-.57-.522,1.259,1.259,0,0,1,.408-1.414,7.421,7.421,0,0,1,10.736,1.212,1.237,1.237,0,0,1,.021,1.462.782.782,0,0,1-1.163.157c-3.882-2.556-8.712-1.155-8.915-1.018a.7.7,0,0,1-.518.123" transform="translate(182.148 22.946)" fill="#080435"></path>
      <path id="Path_2376" data-name="Path 2376" d="M461.334,68.446c.311,2.476-.9,4.666-2.71,4.89s-3.53-1.6-3.841-4.077.9-4.666,2.71-4.89,3.53,1.6,3.841,4.077" transform="translate(183.194 25.919)" fill="#080435"></path>
      <path id="Path_2377" data-name="Path 2377" d="M545.4,76.26s5.769,30.286-23.028,31.719c0,0,9.762-17.193-6.976-32.221-2.392-2.148-6.589-1.711-10.621-2.49-2.493-.481-6.477-3.412-6.215-6.831a12.452,12.452,0,0,0-.206-2.744c-1.4-9.53-6.317-48.707,8.6-41.86,25.9,11.891,30.845,32.938,38.45,54.427" transform="translate(200.002 8.469)" fill="#29140e"></path>
      <path id="Path_2378" data-name="Path 2378" d="M523.648,77.025c-5.266,3.328-11.962,2.236-14.956-2.438S507.54,63.426,512.805,60.1s11.962-2.236,14.956,2.438,1.153,11.161-4.113,14.489" transform="translate(204.354 23.43)" fill="#ffb27d"></path>
      <path id="Path_2379" data-name="Path 2379" d="M458.19,85.941a107.276,107.276,0,0,0,33.883,2.65s-2.6,16.273-20.5,13.031c-10.409-1.885-13.385-15.681-13.385-15.681" transform="translate(184.587 34.617)" fill="#fff"></path>
      <path id="Path_2380" data-name="Path 2380" d="M459.5,25.472s-26.5,11-15.429,23.763,34.112,3.74,42.974,1.32-3.52,9.022,8.541,12.982,24.487-7.782,25.287,4.373l41.708,1.128s-13-44.445-50.506-51.486S459.5,25.472,459.5,25.472" transform="translate(177.807 6.306)" fill="#29140e"></path>
      <path id="Path_2381" data-name="Path 2381" d="M569.119,91.995s18.494-48.065-3.967-62.488c0,0-10.578-28.082-42.876-29.449S475.04,23.735,457.527,23.735s-25.188,25.407-12.411,31.81,82.908-14.963,82.908-14.963Z" transform="translate(176.758 -0.004)" fill="#29140e"></path>
      <path id="Path_2382" data-name="Path 2382" d="M192.831,992.675h-8.839a5.694,5.694,0,0,1-5.693-5.694V921.536a5.694,5.694,0,0,1,5.693-5.694h8.839a5.694,5.694,0,0,1,5.694,5.694v65.445a5.694,5.694,0,0,1-5.694,5.694" transform="translate(71.83 368.951)" fill="#29140e"></path>
      <path id="Path_2383" data-name="Path 2383" d="M208.3,1134.54H46.164A46.21,46.21,0,0,1,.09,1088.464V744.8a46.21,46.21,0,0,1,46.074-46.076H208.3A46.211,46.211,0,0,1,254.374,744.8v343.662A46.211,46.211,0,0,1,208.3,1134.54" transform="translate(0.036 281.484)" fill="#6f4975"></path>
      <path id="Path_2384" data-name="Path 2384" d="M129.411,772.122C54.553,772.122.8,764.091,0,763.966l.251-1.678c1.211.192,121.965,18.2,254.05,0l.229,1.678a923.7,923.7,0,0,1-125.118,8.156" transform="translate(0 307.09)" fill="#29140e"></path>
      <path id="Path_2385" data-name="Path 2385" d="M132.549,939.919c-53.093,0-106.161-4.447-106.948-4.516l-.788-.067V809.662l.948.09c112.681,11.934,179.465.114,180.116.011l1.017-.181V935.29l-.708.114c-20.088,3.381-46.868,4.516-73.636,4.516M26.525,933.77c10.426.863,121.293,9.551,178.654.069V811.612c-8.747,1.407-73.761,10.97-178.654-.067Z" transform="translate(9.996 326.143)" fill="#29140e"></path>
      <path id="Path_2386" data-name="Path 2386" d="M22.573,794.738a4,4,0,1,1,4,3.969,3.982,3.982,0,0,1-4-3.969" transform="translate(9.094 318.564)" fill="#29140e"></path>
      <path id="Path_2387" data-name="Path 2387" d="M40.638,794.738a4,4,0,1,1,4,3.969,3.982,3.982,0,0,1-4-3.969" transform="translate(16.371 318.564)" fill="#29140e"></path>
      <path id="Path_2388" data-name="Path 2388" d="M53.5,794.738a4,4,0,1,1,4,3.969,3.982,3.982,0,0,1-4-3.969" transform="translate(21.551 318.564)" fill="#29140e"></path>
      <path id="Path_2389" data-name="Path 2389" d="M12.808,1026.334a32.535,32.535,0,1,1,32.535,32.316,32.425,32.425,0,0,1-32.535-32.316" transform="translate(5.16 400.445)" fill="#29140e"></path>
      <path id="Path_2390" data-name="Path 2390" d="M23.041,1022.24a18.179,18.179,0,1,1,18.18,18.058,18.119,18.119,0,0,1-18.18-18.058" transform="translate(9.282 404.54)" fill="#621d46"></path>
      <path id="Path_2391" data-name="Path 2391" d="M116.153,1025.728a32.535,32.535,0,1,1,32.534,32.316,32.425,32.425,0,0,1-32.534-32.316" transform="translate(46.793 400.201)" fill="#29140e"></path>
      <path id="Path_2392" data-name="Path 2392" d="M126.386,1021.634a18.179,18.179,0,1,1,18.178,18.057,18.119,18.119,0,0,1-18.178-18.057" transform="translate(50.916 404.295)" fill="#621d46"></path>
      <rect id="Rectangle_1246" data-name="Rectangle 1246" width="254.289" height="1.702" transform="translate(0.126 1021.611)" fill="#29140e"></rect>
      <path id="Path_2393" data-name="Path 2393" d="M702.647,501.034l-8.775,16.535a9.041,9.041,0,0,1-12.173,3.746L254.1,297.454a8.922,8.922,0,0,1-3.771-12.091l8.775-16.536a9.043,9.043,0,0,1,12.173-3.746l427.6,223.861a8.921,8.921,0,0,1,3.769,12.091" transform="translate(100.427 106.369)" fill="#fff"></path>
      <path id="Path_2394" data-name="Path 2394" d="M294.3,264.318s-95.416,7.863-107.4,19.559,21.4,79.73,43.665,74.628,70.163-50.438,70.163-50.438Z" transform="translate(74.278 106.478)" fill="#fff"></path>
      <path id="Path_2395" data-name="Path 2395" d="M354.907,384.893c-4.945-24.048-26.05-38.431-26.266-38.579l.96-1.407c.216.147,21.892,14.917,26.974,39.645Z" transform="translate(132.396 138.944)" fill="#e1854a"></path>
      <path id="Path_2396" data-name="Path 2396" d="M293.365,345.417s-25.508-18.069-9.827-39.241c19.98-26.974,73.179-40.249,60.778-22.973-11,15.316-25.613,31.449-25.613,31.449s48.205-42.777,54.73-27.965S337,335.079,337,335.079s53.22-34.13,54.806-18.535-25.1,38.684-25.1,38.684,37.967-29.046,39.371-10.921-26.228,32.716-38.447,42.271c-11.546,9.029-27.207,4.8-36.277-7.188,0,0-15.885-7.372-19.856-16.509-1.522-3.5-6.536-4.245-8.566-6.116-3.882-3.582-9.562-11.348-9.562-11.348" transform="translate(112.173 110.959)" fill="#ffb27d"></path>
      <path id="Path_2397" data-name="Path 2397" d="M678.552,190.132s87.474,155.482,69.635,219.027c-23.974,85.392-212.33,71.985-212.33,71.985l-29.68-52.369s142.2-40.6,144.858-53.519c4.982-24.225-63.808-113.981-49.253-137.851,17.248-28.283,68.135-60.265,76.77-47.274" transform="translate(203.919 75.39)" fill="#ffb27d"></path>
      <path id="Path_2398" data-name="Path 2398" d="M565.928,363c-14.059-4.607-43.936-7.522-58.085-11.861-6.136-1.883-27.223-6.811-30-1.059-2.41,5,12.377,16.742,20.111,21.5-40.653,12.574-94.4,48.745-7.312,28.456.01.045.022.094.034.139-8.621,2.849-56.579,18.7-48.295,28.472,7.313,8.619,42.115-1.34,56.346-5.878.056.125.112.25.17.375-14.069,5.841-47.662,20.8-37.991,26.76,12.138,7.477,50.544-2.539,50.544-2.539s-48.789,13.86-35.881,24.185c7.277,5.822,34.4-4.966,51.179-11.929h.006c3.518-1.46,6.593-2.754,8.924-3.69a24.418,24.418,0,0,0,4.969-2.651c27.316-13.371,42.658-26.461,42.658-26.461s20.745-12.2,12.53-37C590.6,374.016,572.023,365,565.928,363" transform="translate(177.834 139.941)" fill="#ffb27d"></path>
      <path id="Path_2399" data-name="Path 2399" d="M610.784,326.54l-2.1-2.677c.617-.488,15.657-11.945,42.779-12.456l.069,3.4c-25.9.477-40.6,11.616-40.746,11.729" transform="translate(245.214 125.448)" fill="#faa46f"></path>
      <path id="Path_2400" data-name="Path 2400" d="M706,440.372C777.16,490.951,845.079,559.639,789.223,645.9c-11.686,18.045-25.706,37.982-33.057,58.5-8.583,23.961-14.748,41.373-7.188,66.982,12.758,43.216,58.042,67.786,90.789,92.712,182.537,138.946,34.327,261-75.461,204.7-41.254-12.389-76.293-41.516-115.091-58.846-66.7-29.793-145.1-39.874-183.242-13.991-22.8,15.468-36.324,43.622-47.133,75.739-27.583,81.964-71.653,131.045-155.565,97.807-24.512-9.709-41.411-11.171-70.906-13.7-5.446-.467-5.495,8.992,0,8.5,68.495-6.091,121.815,53.171,179.367,1.278,92.249-83.176,21.739-239.788,256.777-157.642,74.293,25.966,202.423,135.543,280.454,45.225,29.578-34.235,26.943-74.492,9.179-111.595-52.872-110.429-228.224-123.8-138.726-262.927,29.938-46.54,48.236-69.074,31.831-127.7-14.008-50.055-60.458-89.155-100.929-117.92-4.488-3.191-8.768,4.182-4.321,7.343" transform="translate(75.845 174.129)" fill="#29140e"></path>
    </g>
  </g>
</svg>