<svg xmlns="http://www.w3.org/2000/svg" xmlns:xlink="http://www.w3.org/1999/xlink" width="2000" height="2000" viewBox="0 0 2000 2000">
  <defs>
    <clipPath id="clip-OCT_-_Logo_-_Dark">
      <rect width="2000" height="2000"></rect>
    </clipPath>
  </defs>
  <g id="OCT_-_Logo_-_Dark" data-name="OCT -  Logo - Dark" clip-path="url(#clip-OCT_-_Logo_-_Dark)">
    <g id="OCT_-_PRIMARY_-_LOGOTYPE" data-name="OCT - PRIMARY - LOGOTYPE" transform="translate(864.943 969.185)">
      <g id="Group_1" data-name="Group 1" transform="translate(-664.943 -152.185)">
        <path id="Path_1" data-name="Path 1" d="M120,180.908a48.784,48.784,0,0,0,19.785-4.009,50.327,50.327,0,0,0,15.963-10.971,46.8,46.8,0,0,0,10.42-16.675,63.262,63.262,0,0,0,0-42.227,46.943,46.943,0,0,0-10.42-16.675,50.57,50.57,0,0,0-15.963-10.984,51.513,51.513,0,0,0-39.786,0A51.16,51.16,0,0,0,84.264,90.352a46.971,46.971,0,0,0-10.433,16.675,63.471,63.471,0,0,0,0,42.227,46.822,46.822,0,0,0,10.433,16.675A50.907,50.907,0,0,0,100,176.9a48.382,48.382,0,0,0,20,4.009M0,128.142A109.84,109.84,0,0,1,9.357,82.614,111.277,111.277,0,0,1,35.108,46.425,121.4,121.4,0,0,1,73.2,22.381,124.483,124.483,0,0,1,120,13.656a125.088,125.088,0,0,1,46.6,8.725,120.89,120.89,0,0,1,38.3,24.044,111.594,111.594,0,0,1,25.752,36.189,110.042,110.042,0,0,1,9.357,45.528,110.129,110.129,0,0,1-9.357,45.541,111.841,111.841,0,0,1-25.752,36.172,121.116,121.116,0,0,1-38.3,24.044,125.08,125.08,0,0,1-46.6,8.712A124.477,124.477,0,0,1,73.2,233.9a121.626,121.626,0,0,1-38.091-24.044A111.523,111.523,0,0,1,9.357,173.683,109.928,109.928,0,0,1,0,128.142" transform="translate(0 44.212)" fill="#a615ac"></path>
        <path id="Path_2" data-name="Path 2" d="M265.232,217.931q-4.691,2.994-12.34,7.242a121.579,121.579,0,0,1-18.51,8.077,180.87,180.87,0,0,1-24.9,6.6,161.406,161.406,0,0,1-31.061,2.771,138.138,138.138,0,0,1-44.477-7.238,108.341,108.341,0,0,1-37.659-21.5,104.635,104.635,0,0,1-25.964-35.74q-9.8-21.484-9.772-49.995,0-27.237,9.564-48.732A102.967,102.967,0,0,1,96.077,43.454a114.18,114.18,0,0,1,38.3-22.141,140.431,140.431,0,0,1,46.592-7.657,151.575,151.575,0,0,1,42.35,5.755q19.787,5.752,29.574,15.531a41.466,41.466,0,0,1,7.45,10A26.933,26.933,0,0,1,263.117,57.5a33.32,33.32,0,0,1-2.564,13.192,44.324,44.324,0,0,1-6.386,10.628,71.731,71.731,0,0,1-7.869,8.306,44.285,44.285,0,0,1-7.017,5.322Q231.615,87.3,218,80.689q-13.622-6.579-32.35-6.594a64.849,64.849,0,0,0-21.061,3.4,49.02,49.02,0,0,0-17.45,10.208,49.745,49.745,0,0,0-11.916,17.018,58.225,58.225,0,0,0-4.454,23.425q0,14.035,4.454,24.031a45.663,45.663,0,0,0,11.916,16.387,47.014,47.014,0,0,0,17.658,9.369,77.267,77.267,0,0,0,21.709,2.979,79.947,79.947,0,0,0,18.09-1.928,99.894,99.894,0,0,0,14.679-4.458,98.182,98.182,0,0,0,10.64-4.9,27.53,27.53,0,0,0,5.534-3.615Z" transform="translate(196.031 44.209)" fill="#a615ac"></path>
        <path id="Path_3" data-name="Path 3" d="M112.841,30.205q0-16.59,9.776-23.4,9.8-6.82,25.964-6.806a73.825,73.825,0,0,1,20.866,2.759c6.225,1.852,10.208,3.051,11.9,3.627V63.83h48.944q19.158,0,27.239,7.649,8.079,7.685,8.077,22.993a61.074,61.074,0,0,1-3.4,20.641,97.549,97.549,0,0,1-5.1,12.56H181.35v67.1c0,6.547,1,11.763,2.983,15.611a27.016,27.016,0,0,0,7.45,9.183,23.685,23.685,0,0,0,10.208,4.483,63.181,63.181,0,0,0,11.708,1.076,62.137,62.137,0,0,0,21.7-3.627,92.3,92.3,0,0,0,14.047-6.161l26.8,46.554A72.439,72.439,0,0,1,265.19,269.5a112.932,112.932,0,0,1-17.446,8.043,165.727,165.727,0,0,1-22.985,6.53,126.676,126.676,0,0,1-26.815,2.746q-40.007,0-62.555-21.065-22.552-21.046-22.548-56.393Z" transform="translate(365.329)" fill="#a615ac"></path>
        <path id="Path_4" data-name="Path 4" d="M272.027,180.908a48.8,48.8,0,0,0,19.789-4.009,50.42,50.42,0,0,0,15.963-10.971,46.854,46.854,0,0,0,10.42-16.675,63.262,63.262,0,0,0,0-42.227,47,47,0,0,0-10.42-16.675,50.663,50.663,0,0,0-15.963-10.984,51.514,51.514,0,0,0-39.787,0,51.179,51.179,0,0,0-15.742,10.984,46.826,46.826,0,0,0-10.42,16.675,63.261,63.261,0,0,0,0,42.227,46.678,46.678,0,0,0,10.42,16.675A50.926,50.926,0,0,0,252.03,176.9a48.348,48.348,0,0,0,20,4.009m-120-52.766a109.84,109.84,0,0,1,9.357-45.528,111.34,111.34,0,0,1,25.752-36.189,121.4,121.4,0,0,1,38.091-24.044,129.362,129.362,0,0,1,93.408,0,121.053,121.053,0,0,1,38.3,24.044,111.721,111.721,0,0,1,25.752,36.189,110.041,110.041,0,0,1,9.357,45.528,110.129,110.129,0,0,1-9.357,45.541,111.969,111.969,0,0,1-25.752,36.172,121.279,121.279,0,0,1-38.3,24.044,129.538,129.538,0,0,1-93.408,0,121.625,121.625,0,0,1-38.091-24.044,111.586,111.586,0,0,1-25.752-36.172,109.928,109.928,0,0,1-9.357-45.541" transform="translate(492.187 44.212)" fill="#a615ac"></path>
        <path id="Path_5" data-name="Path 5" d="M329.278,180.052q21.287,0,35.108-14.675,13.838-14.683,13.836-37.672T364.387,90.678q-13.831-14.028-35.108-14.043T294.17,90.271q-13.831,13.6-13.836,37.435a57.7,57.7,0,0,0,3.627,20.641,49.111,49.111,0,0,0,10.208,16.594A48.319,48.319,0,0,0,309.7,176.005a46.778,46.778,0,0,0,19.578,4.047m-116.6,141.721V137.927q0-27.218,5.517-47.249,5.536-20,15.755-33.608a103.116,103.116,0,0,1,41.282-32.35q25.089-11.079,55.737-11.064a128.166,128.166,0,0,1,46.6,8.306,112.435,112.435,0,0,1,37.24,23.175,105.4,105.4,0,0,1,24.688,36.189q8.924,21.281,8.933,46.812,0,25.959-8.3,46.817a109.775,109.775,0,0,1-22.548,35.74,98.913,98.913,0,0,1-33.413,22.993,104.254,104.254,0,0,1-40.85,8.081q-23.83,0-39.367-7.45t-23.188-15.111V321.773Z" transform="translate(688.57 44.212)" fill="#a615ac"></path>
        <path id="Path_6" data-name="Path 6" d="M341.019,130.82q0,44.266,39.994,44.253t40.011-44.253V45.273q0-16.6,9.789-23.4t25.951-6.806a74.172,74.172,0,0,1,20.862,2.759c6.229,1.869,10.2,3.064,11.908,3.627V143.58q0,23.849-8.293,41.494a82.055,82.055,0,0,1-22.768,29.366A99.11,99.11,0,0,1,424.008,232.1a158.154,158.154,0,0,1-85.972,0,98.663,98.663,0,0,1-34.464-17.658A81.973,81.973,0,0,1,280.8,185.074q-8.314-17.658-8.3-41.494V45.273q0-16.6,9.789-23.4t25.951-6.806A74.108,74.108,0,0,1,329.1,17.822c6.229,1.869,10.212,3.064,11.92,3.627Z" transform="translate(882.228 48.767)" fill="#a615ac"></path>
        <path id="Path_7" data-name="Path 7" d="M350.8,170.275a66.269,66.269,0,0,0,11.289,6.166,137.658,137.658,0,0,0,18.721,6.818,215.849,215.849,0,0,0,24.675,5.53,175.6,175.6,0,0,0,29.159,2.326q17.442,0,26.383-3.178c5.954-2.144,8.937-5.886,8.937-11.289q0-8.492-7.454-11.7-7.45-3.178-23.188-5.31l-22.129-2.551a246.851,246.851,0,0,1-31.926-6.187,87.883,87.883,0,0,1-27.014-11.9,57.275,57.275,0,0,1-18.514-20.222q-6.82-12.319-6.806-31.061a72.992,72.992,0,0,1,5.742-29.142,60.658,60.658,0,0,1,18.09-23.417Q369.1,25.16,388.245,19.414t45.541-5.759q26.824,0,46.172,3.4,19.355,3.432,33.4,10.645a40.291,40.291,0,0,1,12.984,10.42,23.542,23.542,0,0,1,4.9,15.111,25.864,25.864,0,0,1-2.771,12.141,41.381,41.381,0,0,1-13.191,15.094c-2.132,1.432-3.471,2.288-4.047,2.564a46.145,46.145,0,0,0-7.017-4.691A80.324,80.324,0,0,0,488.9,71.76a178.474,178.474,0,0,0-22.968-5.755,164.474,164.474,0,0,0-30.434-2.551q-19.152,0-26.6,4.466T401.436,79.63q0,7.253,6.823,10.208c4.517,1.983,11.34,3.691,20.417,5.11l38.723,5.534a196.4,196.4,0,0,1,27.883,6.174,77.549,77.549,0,0,1,23.832,11.708,55.832,55.832,0,0,1,16.594,19.565q6.172,11.925,6.178,28.943,0,35.735-27.239,55.754T439.32,242.61a258.946,258.946,0,0,1-44.477-3.4,258.206,258.206,0,0,1-33.4-7.861,124.223,124.223,0,0,1-22.769-9.378,117.391,117.391,0,0,1-12.128-7.437Z" transform="translate(1057.212 44.209)" fill="#a615ac"></path>
      </g>
    </g>
  </g>
</svg>