<svg height="2000" viewBox="0 0 2000 2000" width="2000" xmlns="http://www.w3.org/2000/svg" xmlns:xlink="http://www.w3.org/1999/xlink"><clipPath id="a"><path d="m0 0h2000v2000h-2000z"></path></clipPath><g clip-path="url(#a)" fill="#fff"><path d="m120 180.908a48.784 48.784 0 0 0 19.785-4.009 50.328 50.328 0 0 0 15.963-10.971 46.794 46.794 0 0 0 10.42-16.675 63.262 63.262 0 0 0 0-42.227 46.943 46.943 0 0 0 -10.42-16.675 50.57 50.57 0 0 0 -15.963-10.984 51.513 51.513 0 0 0 -39.786 0 51.161 51.161 0 0 0 -15.735 10.985 46.971 46.971 0 0 0 -10.433 16.675 63.471 63.471 0 0 0 0 42.227 46.822 46.822 0 0 0 10.433 16.675 50.908 50.908 0 0 0 15.736 10.971 48.383 48.383 0 0 0 20 4.009m-120-52.767a109.84 109.84 0 0 1 9.357-45.528 111.277 111.277 0 0 1 25.751-36.189 121.4 121.4 0 0 1 38.092-24.044 124.483 124.483 0 0 1 46.8-8.725 125.088 125.088 0 0 1 46.6 8.725 120.89 120.89 0 0 1 38.3 24.044 111.593 111.593 0 0 1 25.752 36.189 110.042 110.042 0 0 1 9.357 45.528 110.13 110.13 0 0 1 -9.357 45.541 111.841 111.841 0 0 1 -25.752 36.172 121.115 121.115 0 0 1 -38.3 24.044 125.08 125.08 0 0 1 -46.6 8.712 124.477 124.477 0 0 1 -46.8-8.711 121.625 121.625 0 0 1 -38.091-24.044 111.523 111.523 0 0 1 -25.752-36.173 109.928 109.928 0 0 1 -9.357-45.541" transform="translate(200 861.212)"></path><path d="m265.232 217.931q-4.691 2.994-12.34 7.242a121.587 121.587 0 0 1 -18.51 8.077 180.868 180.868 0 0 1 -24.9 6.6 161.406 161.406 0 0 1 -31.061 2.771 138.138 138.138 0 0 1 -44.477-7.238 108.341 108.341 0 0 1 -37.659-21.5 104.635 104.635 0 0 1 -25.964-35.74q-9.8-21.484-9.772-49.995 0-27.237 9.564-48.732a102.968 102.968 0 0 1 25.964-35.962 114.18 114.18 0 0 1 38.3-22.141 140.43 140.43 0 0 1 46.592-7.657 151.575 151.575 0 0 1 42.35 5.755q19.787 5.752 29.574 15.531a41.47 41.47 0 0 1 7.45 10 26.934 26.934 0 0 1 2.774 12.558 33.32 33.32 0 0 1 -2.564 13.192 44.323 44.323 0 0 1 -6.386 10.628 71.729 71.729 0 0 1 -7.869 8.306 44.287 44.287 0 0 1 -7.017 5.322q-7.666-7.648-21.281-14.259-13.622-6.579-32.35-6.594a64.85 64.85 0 0 0 -21.061 3.4 49.02 49.02 0 0 0 -17.45 10.208 49.745 49.745 0 0 0 -11.916 17.018 58.224 58.224 0 0 0 -4.454 23.425q0 14.035 4.454 24.031a45.662 45.662 0 0 0 11.916 16.387 47.013 47.013 0 0 0 17.658 9.369 77.266 77.266 0 0 0 21.709 2.979 79.946 79.946 0 0 0 18.09-1.928 99.89 99.89 0 0 0 14.679-4.458 98.174 98.174 0 0 0 10.64-4.9 27.527 27.527 0 0 0 5.534-3.615z" transform="translate(396.031 861.209)"></path><path d="m112.841 30.205q0-16.59 9.776-23.4 9.8-6.82 25.964-6.806a73.825 73.825 0 0 1 20.866 2.759c6.225 1.852 10.208 3.051 11.9 3.627v57.445h48.944q19.158 0 27.239 7.649 8.079 7.685 8.077 22.993a61.074 61.074 0 0 1 -3.4 20.641 97.537 97.537 0 0 1 -5.1 12.56h-75.757v67.1c0 6.547 1 11.763 2.983 15.611a27.017 27.017 0 0 0 7.45 9.183 23.686 23.686 0 0 0 10.208 4.483 63.18 63.18 0 0 0 11.708 1.076 62.136 62.136 0 0 0 21.7-3.627 92.3 92.3 0 0 0 14.047-6.161l26.8 46.554a72.451 72.451 0 0 1 -11.056 7.608 112.929 112.929 0 0 1 -17.446 8.043 165.731 165.731 0 0 1 -22.984 6.53 126.679 126.679 0 0 1 -26.815 2.746q-40.007 0-62.555-21.065-22.552-21.046-22.548-56.393z" transform="translate(565.329 817)"></path><path d="m272.027 180.908a48.8 48.8 0 0 0 19.789-4.009 50.422 50.422 0 0 0 15.963-10.971 46.852 46.852 0 0 0 10.42-16.675 63.261 63.261 0 0 0 0-42.227 47 47 0 0 0 -10.42-16.675 50.666 50.666 0 0 0 -15.963-10.984 51.514 51.514 0 0 0 -39.787 0 51.18 51.18 0 0 0 -15.743 10.984 46.826 46.826 0 0 0 -10.42 16.675 63.262 63.262 0 0 0 0 42.227 46.678 46.678 0 0 0 10.42 16.675 50.927 50.927 0 0 0 15.744 10.972 48.349 48.349 0 0 0 20 4.009m-120-52.766a109.84 109.84 0 0 1 9.356-45.528 111.341 111.341 0 0 1 25.752-36.189 121.4 121.4 0 0 1 38.091-24.044 129.362 129.362 0 0 1 93.408 0 121.051 121.051 0 0 1 38.3 24.044 111.721 111.721 0 0 1 25.752 36.189 110.042 110.042 0 0 1 9.356 45.528 110.13 110.13 0 0 1 -9.356 45.541 111.969 111.969 0 0 1 -25.752 36.172 121.277 121.277 0 0 1 -38.3 24.044 129.539 129.539 0 0 1 -93.408 0 121.625 121.625 0 0 1 -38.091-24.044 111.587 111.587 0 0 1 -25.752-36.172 109.928 109.928 0 0 1 -9.356-45.541" transform="translate(692.187 861.212)"></path><path d="m329.278 180.052q21.287 0 35.108-14.675 13.838-14.683 13.836-37.672t-13.835-37.027q-13.831-14.028-35.108-14.043t-35.109 13.636q-13.831 13.6-13.836 37.435a57.7 57.7 0 0 0 3.627 20.641 49.11 49.11 0 0 0 10.208 16.594 48.319 48.319 0 0 0 15.531 11.064 46.778 46.778 0 0 0 19.578 4.047m-116.6 141.721v-183.846q0-27.218 5.517-47.249 5.536-20 15.755-33.608a103.116 103.116 0 0 1 41.282-32.35q25.089-11.079 55.737-11.064a128.166 128.166 0 0 1 46.6 8.306 112.434 112.434 0 0 1 37.24 23.175 105.4 105.4 0 0 1 24.688 36.189q8.924 21.281 8.933 46.812 0 25.959-8.3 46.817a109.773 109.773 0 0 1 -22.548 35.74 98.914 98.914 0 0 1 -33.413 22.993 104.254 104.254 0 0 1 -40.85 8.081q-23.83 0-39.367-7.45t-23.188-15.111v102.565z" transform="translate(888.571 861.212)"></path><path d="m341.019 130.82q0 44.266 39.994 44.253t40.011-44.253v-85.547q0-16.6 9.789-23.4t25.951-6.806a74.171 74.171 0 0 1 20.861 2.759c6.229 1.869 10.2 3.064 11.908 3.627v122.127q0 23.849-8.293 41.494a82.056 82.056 0 0 1 -22.768 29.366 99.109 99.109 0 0 1 -34.464 17.66 158.154 158.154 0 0 1 -85.972 0 98.661 98.661 0 0 1 -34.464-17.658 81.97 81.97 0 0 1 -22.772-29.368q-8.314-17.658-8.3-41.494v-98.307q0-16.6 9.789-23.4t25.951-6.806a74.108 74.108 0 0 1 20.86 2.755c6.229 1.869 10.213 3.064 11.92 3.627z" transform="translate(1082.228 865.767)"></path><path d="m350.8 170.275a66.27 66.27 0 0 0 11.289 6.166 137.664 137.664 0 0 0 18.722 6.818 215.822 215.822 0 0 0 24.675 5.53 175.6 175.6 0 0 0 29.159 2.326q17.442 0 26.383-3.178c5.954-2.144 8.937-5.886 8.937-11.289q0-8.492-7.454-11.7-7.45-3.178-23.188-5.31l-22.128-2.551a246.857 246.857 0 0 1 -31.926-6.187 87.884 87.884 0 0 1 -27.014-11.9 57.276 57.276 0 0 1 -18.514-20.222q-6.82-12.319-6.805-31.061a72.991 72.991 0 0 1 5.742-29.142 60.656 60.656 0 0 1 18.09-23.417q12.332-9.998 31.477-15.744 19.158-5.759 45.541-5.759 26.824 0 46.172 3.4 19.355 3.432 33.4 10.645a40.292 40.292 0 0 1 12.984 10.42 23.543 23.543 0 0 1 4.9 15.111 25.865 25.865 0 0 1 -2.772 12.141 41.38 41.38 0 0 1 -13.191 15.094c-2.131 1.432-3.471 2.288-4.047 2.564a46.159 46.159 0 0 0 -7.017-4.691 80.323 80.323 0 0 0 -15.315-6.579 178.478 178.478 0 0 0 -22.968-5.755 164.473 164.473 0 0 0 -30.434-2.551q-19.152 0-26.6 4.466t-7.462 11.71q0 7.253 6.823 10.208c4.517 1.983 11.34 3.691 20.417 5.11l38.723 5.534a196.388 196.388 0 0 1 27.883 6.174 77.547 77.547 0 0 1 23.832 11.708 55.831 55.831 0 0 1 16.594 19.565q6.172 11.925 6.178 28.943 0 35.735-27.239 55.754t-75.327 19.984a258.943 258.943 0 0 1 -44.477-3.4 258.209 258.209 0 0 1 -33.4-7.861 124.216 124.216 0 0 1 -22.768-9.378 117.38 117.38 0 0 1 -12.128-7.437z" transform="translate(1257.212 861.209)"></path></g></svg>