<svg xmlns="http://www.w3.org/2000/svg" xmlns:xlink="http://www.w3.org/1999/xlink" width="2000" height="2000" viewBox="0 0 2000 2000">
  <defs>
    <clipPath id="clip-OCT_-_Icon_-_Light">
      <rect width="2000" height="2000"></rect>
    </clipPath>
  </defs>
  <g id="OCT_-_Icon_-_Light" data-name="OCT -  Icon - Light" clip-path="url(#clip-OCT_-_Icon_-_Light)">
    <g id="OCT_-_PRIMARY-REV_-_LOGOTYPE" data-name="OCT - PRIMARY-REV - LOGOTYPE" transform="translate(1000.42 999.805)">
      <path id="Path_17" data-name="Path 17" d="M440.829,636.749a48.395,48.395,0,1,1,48.406-48.395,48.387,48.387,0,0,1-48.406,48.395M1185.66,989.492c-27.107-118.977-101.247-236.277-198.3-313.76-51.884-41.426-125.574-83.742-223.173-103.048-13.137-4.458-13.486-12.383-5.122-17.494q56.787-20.33,100.211-57.006c61.622-52.233,99.356-129.277,106.245-216.948A260.96,260.96,0,0,0,725.782.685a218.073,218.073,0,0,0-234.5,200.355A183.82,183.82,0,0,0,660.2,398.716,46.776,46.776,0,1,0,667.5,305.45a90.269,90.269,0,0,1-82.943-97.071,124.56,124.56,0,0,1,133.9-114.44A167.409,167.409,0,0,1,872.249,273.9c-3.467,44.331-19.047,106.8-73.464,152.917-47.944,40.65-163.713,67.014-208.956,58.943-101.573-17.167-223.241-218.322-329.171-190.55L60.078,344.862A79.526,79.526,0,0,0,2.441,441.493L86.656,676.014c10.751,42.631,48.2,53.55,96.553,56.6L415.343,733.8c37.43,0,52.684,12.056,72.958,25.047C555.63,806.158,596.516,858.6,610.07,915.127c14.983,62.455-7.036,116.208-28.132,150.283a149.92,149.92,0,0,1-206.389,48.6,110.589,110.589,0,0,1-35.832-152.253,79.086,79.086,0,0,1,108.913-25.61,46.78,46.78,0,0,0,49.239-79.554,172.69,172.69,0,0,0-237.718,55.926A204.193,204.193,0,0,0,326.3,1193.551,242.061,242.061,0,0,0,454,1230.092a245.084,245.084,0,0,0,56.252-6.574A241.869,241.869,0,0,0,661.5,1114.661c43.036-69.592,57.085-148.167,39.558-221.316q-14.2-59.252-53.877-111.964a21.065,21.065,0,0,0-1.711-2.353c-14.533-17.584-1.734-32,18.563-21.546,87.806,52.774,143.056,127.51,157.15,216.824,19.723,125.078-45.2,252.4-165.368,324.409a46.773,46.773,0,0,0,48.068,80.252C779.1,1333.916,838.6,1270.325,875.953,1195c37.115-74.781,50.139-156.148,37.655-235.275C900.64,877.517,860.339,802.049,797.074,741.4a465.615,465.615,0,0,0-51.3-42.383,17.852,17.852,0,0,0-3.343-2.409c-.417-.259-.811-.518-1.216-.777-1.655-1.159-3.31-2.33-4.964-3.467-20.184-15.625-18.991-35.19,16.48-26.8a46.73,46.73,0,0,0,5.82,1.114,418.057,418.057,0,0,1,170.434,82.189c95.416,76.166,148.032,184.989,165.447,261.436A46.818,46.818,0,0,0,1140,1046.69a45.474,45.474,0,0,0,10.435-1.193,46.766,46.766,0,0,0,35.224-56" transform="translate(-593.42 -692.805)" fill="#fff"></path>
    </g>
  </g>
</svg>