<svg xmlns="http://www.w3.org/2000/svg" xmlns:xlink="http://www.w3.org/1999/xlink" width="2000" height="2000" viewBox="0 0 2000 2000">
  <defs>
    <clipPath id="clip-OCT_-_Icon_-_Dark">
      <rect width="2000" height="2000"></rect>
    </clipPath>
  </defs>
  <g id="OCT_-_Icon_-_Dark" data-name="OCT -  Icon - Dark" clip-path="url(#clip-OCT_-_Icon_-_Dark)">
    <g id="OCT_-_PRIMARY_-_ICON" data-name="OCT - PRIMARY - ICON" transform="translate(1000.421 999.806)">
      <path id="Path_15" data-name="Path 15" d="M440.83,636.75a48.395,48.395,0,1,1,48.406-48.395A48.387,48.387,0,0,1,440.83,636.75m744.832,352.744c-27.107-118.977-101.247-236.277-198.3-313.76-51.885-41.426-125.574-83.742-223.174-103.048-13.137-4.458-13.486-12.383-5.122-17.494q56.787-20.33,100.211-57.006c61.622-52.233,99.356-129.278,106.245-216.949A260.961,260.961,0,0,0,725.784.685a218.073,218.073,0,0,0-234.5,200.355A183.82,183.82,0,0,0,660.2,398.717a46.776,46.776,0,1,0,7.306-93.266,90.269,90.269,0,0,1-82.943-97.071,124.56,124.56,0,0,1,133.9-114.441A167.41,167.41,0,0,1,872.251,273.9c-3.467,44.331-19.047,106.8-73.465,152.918-47.944,40.65-163.713,67.014-208.956,58.943C488.257,468.59,366.589,267.435,260.659,295.207L60.078,344.862A79.526,79.526,0,0,0,2.441,441.494L86.657,676.015c10.751,42.631,48.2,53.55,96.553,56.6L415.344,733.8c37.43,0,52.684,12.056,72.958,25.047,67.329,47.314,108.216,99.761,121.769,156.284,14.983,62.455-7.036,116.208-28.132,150.284a149.92,149.92,0,0,1-206.389,48.6,110.589,110.589,0,0,1-35.832-152.253,79.086,79.086,0,0,1,108.913-25.61,46.78,46.78,0,0,0,49.239-79.555,172.69,172.69,0,0,0-237.718,55.926A204.193,204.193,0,0,0,326.3,1193.553,242.063,242.063,0,0,0,454,1230.094a245.085,245.085,0,0,0,56.252-6.574,241.868,241.868,0,0,0,151.252-108.857c43.036-69.592,57.085-148.167,39.558-221.316q-14.2-59.252-53.877-111.964a21.063,21.063,0,0,0-1.711-2.353c-14.533-17.584-1.734-32,18.563-21.546,87.806,52.774,143.056,127.51,157.15,216.825,19.723,125.079-45.2,252.4-165.368,324.41a46.773,46.773,0,0,0,48.068,80.253c75.209-45.051,134.715-108.643,172.066-183.965,37.115-74.782,50.14-156.149,37.655-235.276C900.642,877.519,860.341,802.051,797.075,741.4a465.6,465.6,0,0,0-51.3-42.383,17.852,17.852,0,0,0-3.343-2.409c-.417-.259-.811-.518-1.216-.777-1.655-1.159-3.31-2.33-4.965-3.467-20.184-15.625-18.991-35.19,16.481-26.8a46.748,46.748,0,0,0,5.82,1.114A418.057,418.057,0,0,1,928.987,748.86c95.416,76.166,148.032,184.989,165.447,261.437A46.818,46.818,0,0,0,1140,1046.692a45.472,45.472,0,0,0,10.435-1.193,46.766,46.766,0,0,0,35.224-56" transform="translate(-593.421 -692.806)" fill="#a615ac"></path>
    </g>
  </g>
</svg>